<?xml version="1.0" standalone="no"?>
<!DOCTYPE svg PUBLIC "-//W3C//DTD SVG 20010904//EN"
 "http://www.w3.org/TR/2001/REC-SVG-20010904/DTD/svg10.dtd">
<svg version="1.0" xmlns="http://www.w3.org/2000/svg" 
     width="500pt" height="500pt" viewBox="0 0 500 500" preserveAspectRatio="xMidYMid meet">

  <metadata>
    Created by potrace 1.16, written by Peter Selinger 2001-2019
  </metadata>

  <!-- Added white circular background -->
  <circle cx="250" cy="250" r="170" fill="white"/>

  <g transform="translate(0,500) scale(0.1,-0.1)" fill="#000000" stroke="none">
    <path d="M2218 4290 c-340 -60 -633 -201 -894 -429 -318 -278 -525 -670 -590
    -1121 -22 -157 -15 -430 16 -585 158 -796 793 -1379 1595 -1466 494 -53 1021
    141 1400 516 317 315 493 694 535 1155 29 309 -46 682 -196 981 -83 167 -177
    294 -328 444 -217 217 -428 348 -703 438 -197 64 -344 87 -557 86 -120 0 -203
    -6 -278 -19z m-201 -420 c26 -12 69 -39 96 -61 l47 -40 83 18 c115 25 398 25
    515 0 l84 -18 40 37 c70 62 139 89 238 89 71 0 94 -5 143 -27 157 -73 244
    -230 235 -422 -3 -72 -10 -103 -31 -150 -15 -32 -24 -63 -20 -70 4 -6 25 -35
    46 -64 80 -106 160 -271 187 -385 49 -203 8 -377 -119 -510 -52 -55 -235 -187
    -258 -187 -6 0 -30 -9 -54 -21 l-44 -20 70 4 c66 5 167 32 217 58 13 7 49 32
    81 57 58 44 59 44 100 32 95 -28 252 -132 301 -199 52 -71 69 -117 63 -174 -7
    -79 -60 -117 -120 -86 -12 7 -58 40 -102 73 -90 69 -233 161 -240 154 -3 -3
    55 -72 129 -155 148 -166 156 -178 156 -222 0 -65 -71 -91 -137 -52 -17 11
    -74 68 -125 127 -51 59 -108 123 -126 143 l-32 36 14 -35 c8 -19 42 -90 76
    -158 66 -131 80 -182 60 -207 -30 -36 -143 -2 -214 63 -32 31 -173 196 -196
    231 l-15 23 -38 -31 c-21 -16 -43 -31 -50 -34 -9 -3 -8 -11 2 -33 37 -79 103
    -286 108 -339 5 -53 3 -62 -16 -79 -61 -55 -211 75 -336 290 l-36 62 -57 -16
    c-82 -24 -403 -24 -485 0 l-57 16 -22 -41 c-60 -119 -186 -272 -250 -305 -87
    -43 -124 -22 -115 67 5 57 57 225 98 321 16 37 19 55 12 57 -7 3 -29 18 -50
    34 l-38 31 -15 -23 c-27 -41 -112 -143 -169 -202 -86 -89 -183 -131 -230 -101
    -33 22 -26 53 54 219 104 217 104 221 9 103 -32 -40 -95 -110 -139 -155 -73
    -75 -85 -83 -119 -83 -50 0 -73 14 -81 48 -11 54 7 81 198 296 48 54 85 101
    83 104 -8 7 -149 -83 -241 -154 -44 -33 -90 -66 -102 -73 -60 -31 -113 7 -121
    88 -4 41 1 58 29 111 30 57 85 119 137 156 49 34 161 93 199 104 41 12 42 12
    100 -32 32 -25 68 -50 81 -57 50 -26 151 -53 217 -58 l70 -4 -44 20 c-24 12
    -48 21 -53 21 -24 0 -188 118 -249 179 -137 137 -180 322 -125 536 21 82 126
    289 188 370 l50 67 -27 61 c-37 83 -45 216 -20 303 43 150 149 260 282 294 57
    14 166 4 220 -20z"/>
    <path d="M1787 3762 c-70 -25 -109 -62 -148 -138 -31 -63 -34 -76 -34 -159 0
    -81 3 -97 33 -160 39 -82 60 -107 122 -143 59 -36 164 -38 225 -5 123 66 193
    251 150 398 -34 118 -85 178 -178 209 -60 20 -109 20 -170 -2z m131 -86 c64
    -33 111 -109 119 -191 9 -81 -12 -150 -61 -200 -75 -79 -161 -79 -232 -2 -45
    50 -64 101 -64 174 0 159 128 276 238 219z"/>
    <path d="M1805 3578 c-56 -43 -70 -130 -35 -203 48 -99 159 -79 190 35 16 60
    4 114 -35 155 -39 42 -78 46 -120 13z"/>
    <path d="M3037 3762 c-67 -24 -108 -61 -140 -125 -57 -118 -59 -223 -6 -337
    49 -106 111 -155 208 -167 106 -12 203 48 261 163 33 65 35 75 35 165 0 88 -2
    100 -34 161 -42 84 -73 113 -144 138 -68 24 -117 25 -180 2z m173 -92 c88 -45
    133 -184 98 -303 -17 -56 -82 -122 -135 -136 -149 -40 -268 183 -185 345 52
    101 137 137 222 94z"/>
    <path d="M3091 3584 c-25 -18 -60 -87 -61 -119 0 -41 23 -99 50 -127 70 -69
    170 0 170 118 0 103 -90 176 -159 128z"/>
    <path d="M2295 3125 c-28 -27 -30 -42 -13 -80 22 -48 104 -44 122 6 13 37 1
    74 -29 87 -38 17 -53 15 -80 -13z"/>
    <path d="M2618 3134 c-23 -12 -28 -21 -28 -53 0 -46 24 -71 67 -71 39 0 63 28
    63 73 0 26 -6 40 -22 51 -28 20 -45 20 -80 0z"/>
    <path d="M2370 2830 c-225 -27 -477 -136 -616 -265 -34 -32 -45 -49 -42 -66 5
    -37 37 -34 108 11 190 119 374 185 560 201 288 23 526 -34 785 -191 91 -55
    118 -60 123 -20 2 18 -8 35 -35 62 -43 42 -200 148 -218 148 -7 0 -42 14 -79
    30 -88 40 -228 77 -341 90 -100 11 -150 11 -245 0z"/>
  </g>
</svg>
