<?xml version="1.0" standalone="no"?>
<!DOCTYPE svg PUBLIC "-//W3C//DTD SVG 20010904//EN"
 "http://www.w3.org/TR/2001/REC-SVG-20010904/DTD/svg10.dtd">
<svg version="1.0" xmlns="http://www.w3.org/2000/svg"
 width="1024.000000pt" height="1024.000000pt" viewBox="0 0 1024.000000 1024.000000"
 preserveAspectRatio="xMidYMid meet">
<metadata>
Created by potrace 1.16, written by Peter Selinger 2001-2019
</metadata>
<g transform="translate(0.000000,1024.000000) scale(0.100000,-0.100000)"
fill="#000000" stroke="none">
<path d="M4790 8819 c-423 -39 -893 -175 -1283 -370 -517 -260 -1017 -685
-1343 -1144 -358 -504 -591 -1115 -671 -1765 -27 -222 -25 -669 5 -890 143
-1056 678 -1957 1522 -2562 385 -276 822 -477 1275 -588 295 -72 530 -100 835
-100 305 0 548 29 836 100 509 125 988 364 1419 709 158 125 445 414 573 573
457 573 727 1238 804 1978 16 158 16 559 0 710 -32 296 -95 588 -185 855 -76
225 -117 324 -222 530 -185 366 -370 620 -671 917 -609 601 -1396 971 -2229
1048 -130 12 -529 11 -665 -1z m-765 -859 c132 -34 259 -105 361 -202 l42 -40
83 20 c376 91 828 93 1198 6 l103 -24 62 57 c289 267 731 272 1010 12 130
-121 197 -232 252 -414 25 -82 28 -105 28 -255 1 -189 -16 -271 -83 -416 l-38
-81 50 -64 c77 -98 200 -288 261 -402 276 -516 297 -1022 56 -1376 -147 -217
-451 -440 -783 -577 l-82 -33 70 -1 c259 -1 543 108 757 291 31 27 62 49 68
49 27 0 172 -56 265 -103 144 -71 267 -158 371 -262 99 -99 151 -176 184 -275
41 -122 12 -257 -67 -317 -28 -22 -47 -27 -87 -27 -63 0 -75 7 -301 174 -245
182 -485 338 -485 314 0 -22 151 -201 345 -409 165 -177 210 -234 230 -295 54
-161 -81 -271 -240 -196 -77 36 -130 89 -377 378 -126 147 -231 268 -233 268
-10 0 75 -183 180 -386 135 -265 160 -327 152 -386 -9 -64 -42 -88 -120 -88
-191 1 -438 216 -743 647 l-30 41 -64 -50 c-36 -28 -82 -59 -102 -69 -21 -11
-38 -22 -38 -25 0 -3 21 -53 46 -112 155 -362 233 -646 205 -749 -17 -63 -52
-86 -122 -80 -75 7 -132 41 -238 142 -141 135 -287 331 -386 518 -35 66 -51
87 -64 83 -58 -17 -149 -37 -231 -51 -126 -22 -474 -31 -610 -16 -96 10 -327
53 -362 66 -10 4 -21 -7 -34 -37 -91 -204 -351 -539 -498 -642 -76 -53 -116
-69 -171 -69 -142 0 -149 142 -27 503 40 116 99 267 146 373 14 32 26 62 26
67 0 5 -17 18 -37 29 -21 10 -67 41 -102 69 l-64 50 -65 -92 c-141 -199 -349
-425 -462 -503 -144 -98 -286 -127 -338 -70 -53 59 -35 120 127 444 121 242
185 382 178 389 -2 2 -99 -108 -215 -245 -308 -361 -376 -420 -487 -421 -119
0 -179 87 -145 212 14 51 73 126 241 313 200 222 329 379 329 399 0 24 -215
-115 -477 -310 -108 -80 -210 -153 -227 -162 -17 -8 -54 -16 -82 -16 -101 -2
-170 89 -168 224 1 167 124 354 339 516 130 98 318 195 443 230 l60 17 59 -50
c205 -176 458 -279 708 -289 l120 -5 -80 34 c-244 103 -410 207 -604 378 -147
129 -262 311 -313 495 -19 69 -22 105 -22 279 -1 222 8 283 70 475 64 199 249
530 406 728 l50 63 -41 90 c-69 147 -84 220 -85 399 0 167 11 233 60 359 85
214 264 398 454 467 134 48 305 57 435 24z"/>
<path d="M3701 7724 c-168 -45 -325 -207 -390 -401 -82 -244 -18 -548 154
-732 111 -119 223 -171 367 -171 98 1 151 11 224 46 151 72 276 238 326 436
29 117 22 308 -16 424 -63 196 -219 354 -391 399 -73 19 -202 18 -274 -1z
m236 -200 c98 -47 191 -177 224 -314 31 -131 7 -310 -58 -417 -48 -81 -88
-119 -161 -155 -127 -63 -265 -36 -365 71 -143 153 -176 419 -77 626 91 191
270 268 437 189z"/>
<path d="M3726 7357 c-85 -48 -136 -153 -136 -280 0 -172 93 -299 219 -299 83
0 140 44 188 147 24 53 28 72 28 156 0 90 -2 100 -35 165 -62 122 -167 167
-264 111z"/>
<path d="M6250 7722 c-86 -29 -134 -57 -200 -119 -76 -70 -113 -123 -151 -215
-115 -280 -56 -622 144 -822 101 -100 213 -145 358 -146 236 -1 437 166 530
441 30 86 33 105 33 219 0 147 -15 216 -75 339 -59 120 -154 218 -266 273 -83
41 -87 42 -201 45 -93 2 -128 -1 -172 -15z m305 -196 c101 -46 165 -125 210
-259 34 -102 42 -210 21 -306 -40 -187 -141 -310 -286 -347 -75 -19 -124 -13
-207 27 -142 68 -223 226 -223 434 0 155 39 267 126 364 104 115 230 146 359
87z"/>
<path d="M6364 7366 c-47 -21 -101 -83 -126 -145 -34 -86 -32 -216 5 -296 48
-102 104 -147 187 -148 128 -2 220 123 220 298 0 89 -21 162 -63 217 -60 78
-146 107 -223 74z"/>
<path d="M4732 6434 c-100 -51 -107 -189 -13 -251 41 -28 93 -30 140 -5 96 48
106 181 20 245 -37 27 -106 32 -147 11z"/>
<path d="M5374 6431 c-53 -32 -74 -68 -74 -124 0 -141 152 -197 250 -92 21 23
25 36 25 90 0 54 -4 67 -25 90 -53 57 -120 70 -176 36z"/>
<path d="M4895 5800 c-394 -42 -786 -180 -1101 -388 -134 -89 -279 -222 -290
-265 -16 -68 29 -106 97 -83 19 7 90 50 159 95 305 202 653 332 1035 387 162
24 475 24 640 0 388 -55 773 -200 1084 -407 127 -85 171 -98 204 -61 42 46 14
109 -90 197 -290 247 -749 445 -1183 510 -125 18 -442 27 -555 15z"/>
</g>
</svg>
