<?xml version="1.0" encoding="UTF-8"?>
<svg version="1.1" xmlns="http://www.w3.org/2000/svg" width="1600" height="1200">
<path d="M0 0 C528 0 1056 0 1600 0 C1600 396 1600 792 1600 1200 C1072 1200 544 1200 0 1200 C0 804 0 408 0 0 Z " fill="#FDFDFE" transform="translate(0,0)"/>
<path d="M0 0 C2.76897676 1.05471084 5.14378615 2.38118346 7.65454102 3.95458984 C8.53754883 4.50244141 9.42055664 5.05029297 10.33032227 5.61474609 C10.99418945 6.03626953 11.65805664 6.45779297 12.34204102 6.89208984 C11.66984163 10.70121971 10.588434 14.23397709 9.34204102 17.89208984 C13.69761661 16.98203762 18.05133327 16.06339929 22.40454102 15.14208984 C23.69191162 14.87130615 24.97928223 14.60052246 26.30566406 14.3215332 C32.84942574 12.92629689 39.25787284 11.41065254 45.65454102 9.45458984 C53.0917643 7.41466574 59.77737338 7.87494872 67.34204102 8.89208984 C68.57760742 9.04605225 68.57760742 9.04605225 69.83813477 9.203125 C80.48106347 10.53739818 90.95221585 12.18227539 101.34204102 14.89208984 C103.0165332 15.30394531 103.0165332 15.30394531 104.72485352 15.72412109 C108.61807302 16.71214116 112.48488823 17.77300686 116.34204102 18.89208984 C117.10484375 19.11316406 117.86764648 19.33423828 118.65356445 19.56201172 C143.96222186 27.06614557 167.18518968 38.79880141 187.34204102 55.89208984 C188.0987207 56.51470703 188.85540039 57.13732422 189.63500977 57.77880859 C195.66080199 62.89191628 200.52295327 68.64703318 205.34204102 74.89208984 C206.03426758 75.75705078 206.72649414 76.62201172 207.43969727 77.51318359 C217.62338446 90.71861997 224.19964545 105.97603248 222.34204102 122.89208984 C219.4828018 139.62218378 210.7013048 154.71148811 200.34204102 167.89208984 C199.81481445 168.59849609 199.28758789 169.30490234 198.74438477 170.03271484 C181.2438705 193.25207039 159.91560367 213.46322332 139.34204102 233.89208984 C135.40483574 232.06914438 132.66778676 229.52283239 129.65454102 226.45458984 C129.13069824 225.92542969 128.60685547 225.39626953 128.06713867 224.85107422 C115.54777878 212.03063992 115.54777878 212.03063992 112.34204102 204.89208984 C111.68204102 204.89208984 111.02204102 204.89208984 110.34204102 204.89208984 C110.07262695 205.49021484 109.80321289 206.08833984 109.52563477 206.70458984 C106.08423352 213.06493538 99.89620306 215.80700848 93.38110352 218.22802734 C90.63516424 218.82803978 88.43995498 218.96043953 85.65209961 218.93359375 C84.8442099 218.92760162 84.03632019 218.9216095 83.20394897 218.91543579 C82.28230453 218.90387955 82.28230453 218.90387955 81.34204102 218.89208984 C83.58393114 238.4898206 85.88442353 257.99613902 89.83325195 277.33447266 C92.36334007 289.75117225 94.54343608 302.22103869 96.71704102 314.70458984 C99.46759569 330.45916857 102.30484239 346.1902203 105.34204102 361.89208984 C108.82189878 379.88333236 112.02647137 397.91753763 115.17773438 415.96899414 C117.32426441 428.24626645 119.51728799 440.50618867 122.02246094 452.71630859 C122.20139893 453.60576172 122.38033691 454.49521484 122.56469727 455.41162109 C122.79298218 456.51147339 122.79298218 456.51147339 123.02587891 457.63354492 C123.80539266 463.20210227 123.06257296 467.48156955 121.29516602 472.80224609 C121.08269226 473.45100204 120.87021851 474.099758 120.65130615 474.76817322 C119.97315773 476.83315219 119.28305579 478.89388508 118.59204102 480.95458984 C117.92063565 482.98311695 117.2517469 485.01246253 116.58296204 487.04185486 C116.14082494 488.38294399 115.69777959 489.72373403 115.25382996 491.06422424 C113.18895984 497.31167056 111.24728205 503.59418142 109.34204102 509.89208984 C108.91979248 511.28415649 108.91979248 511.28415649 108.48901367 512.7043457 C107.94447876 514.50131092 107.40044456 516.29842794 106.85693359 518.09570312 C103.62644637 528.76994211 100.28823535 539.40602993 96.89282227 550.02880859 C94.45189473 557.66927609 92.11406942 565.34003058 89.79125977 573.01708984 C86.52474633 583.8005531 83.20216963 594.56213525 79.765625 605.29272461 C78.17096229 610.27383141 76.60865781 615.26167775 75.09204102 620.26708984 C73.68310235 624.8886516 72.10585889 629.39435428 70.34204102 633.89208984 C65.07333467 633.15037876 60.07227471 631.78299369 54.96704102 630.32958984 C54.1355957 630.095625 53.30415039 629.86166016 52.44750977 629.62060547 C50.41155493 629.04726186 48.37668575 628.47006544 46.34204102 627.89208984 C46.22543296 618.82703471 46.50656347 609.9061242 47.29516602 600.87646484 C47.39529999 599.67785324 47.49543396 598.47924164 47.59860229 597.24430847 C47.92362987 593.37635557 48.25742625 589.5092242 48.59204102 585.64208984 C48.76400511 583.62622282 48.93518505 581.61029011 49.10635567 579.59435558 C51.55032369 550.83656129 54.05957909 522.0743938 57.39135742 493.40356445 C60.26229663 471.68519718 60.26229663 471.68519718 56.15454102 450.51708984 C55.62812012 449.06882812 55.62812012 449.06882812 55.09106445 447.59130859 C45.67736373 422.26454125 34.79819118 396.151123 19.34204102 373.89208984 C18.34055578 381.67608558 17.93824806 389.46992643 17.5538063 397.30276871 C17.42690058 399.88816171 17.29666717 402.47337085 17.16574097 405.05856323 C16.9714704 408.90025939 16.77856154 412.74202065 16.58657837 416.58383179 C16.04892403 427.32511365 15.49540667 438.06558986 14.94360352 448.80615234 C14.88336565 449.97951582 14.82312778 451.1528793 14.76106453 452.36179924 C13.18538149 483.04428224 11.59131272 513.72579919 9.95930958 544.40534115 C9.51076362 552.84011737 9.065161 561.27502631 8.62716675 569.71035767 C8.24966794 576.98044768 7.86642352 584.25020627 7.47581959 591.51960444 C7.27391967 595.28040045 7.0747889 599.04129195 6.88280869 602.80260849 C6.6723613 606.92369611 6.44885776 611.04397358 6.22412109 615.16430664 C6.16435058 616.3744534 6.10458006 617.58460016 6.04299831 618.83141804 C5.94875875 620.50116074 5.94875875 620.50116074 5.85261536 622.20463562 C5.80195828 623.16452235 5.75130121 624.12440908 5.69910908 625.11338329 C5.29916135 628.22577976 4.41858948 630.95127672 3.34204102 633.89208984 C0.8218413 634.23094023 -1.69894414 634.56329319 -4.22045898 634.89208984 C-4.92493164 634.98748047 -5.6294043 635.08287109 -6.35522461 635.18115234 C-10.83163754 635.75875401 -15.14457137 635.98698367 -19.65795898 635.89208984 C-23.28684168 617.14286259 -25.48396423 598.16815926 -27.88452148 579.23193359 C-28.30861202 575.88943622 -28.73312424 572.54699271 -29.15795898 569.20458984 C-29.31695175 567.95257278 -29.31695175 567.95257278 -29.47915649 566.67526245 C-30.92742031 555.29439268 -32.49037076 543.93935516 -34.2109375 532.59594727 C-36.0018839 520.74835557 -37.55012214 508.87038351 -39.11499023 496.99121094 C-39.98844836 490.38110138 -40.88454248 483.77403106 -41.77908325 477.16674805 C-42.0970175 474.81807667 -42.41452528 472.46934798 -42.73193359 470.12060547 C-43.68483408 463.07135042 -44.63957372 456.02235423 -45.6000061 448.97412109 C-46.12028571 445.15524126 -46.63939053 441.33620239 -47.15795898 437.51708984 C-47.26132568 436.75616028 -47.36469238 435.99523071 -47.47119141 435.21124268 C-48.9659602 424.19153955 -50.39395592 413.16458541 -51.78860474 402.13180542 C-51.88986664 401.33082428 -51.99112854 400.52984314 -52.09545898 399.70458984 C-52.19664032 398.90401154 -52.29782166 398.10343323 -52.40206909 397.27859497 C-54.15761544 383.42723873 -56.09710104 369.6065697 -58.10830688 355.79019165 C-59.72484715 344.68053117 -61.21948355 333.56845739 -62.54171753 322.42001343 C-64.30294882 307.61475339 -66.532535 293.43462526 -71.52514648 279.34130859 C-73.39936985 273.63462158 -74.88877531 267.82261094 -76.44433594 262.02246094 C-77.77745971 257.07013582 -79.15906283 252.15356443 -80.72045898 247.26708984 C-82.65706108 241.12782012 -84.20922715 234.91120462 -85.73242188 228.65917969 C-87.11114658 223.00889625 -88.58451491 217.38828176 -90.09048462 211.77056885 C-91.96045289 204.78361309 -93.76687321 197.78102908 -95.53295898 190.76708984 C-95.79008163 189.74743637 -95.79008163 189.74743637 -96.05239868 188.70718384 C-98.86330235 177.51533145 -101.30781249 166.28553231 -103.56616211 154.96777344 C-105.15184947 147.09314457 -106.97614106 139.33309575 -109.18603516 131.60961914 C-110.21826947 127.94311258 -110.91147845 124.70979481 -110.65795898 120.89208984 C-111.31795898 120.89208984 -111.97795898 120.89208984 -112.65795898 120.89208984 C-112.87323242 121.41544922 -113.08850586 121.93880859 -113.31030273 122.47802734 C-115.19180839 125.84837661 -117.69148227 128.62526506 -120.22045898 131.51708984 C-120.75840088 132.1380957 -121.29634277 132.75910156 -121.85058594 133.39892578 C-125.65022436 137.77265903 -129.49282604 142.10675627 -133.39282227 146.39135742 C-134.80078096 147.94575718 -136.2009075 149.50733538 -137.58862305 151.07983398 C-143.49414025 157.75169969 -149.69653035 164.08451728 -156.00585938 170.37036133 C-157.72504568 172.08416217 -159.43878482 173.80328067 -161.15209961 175.52294922 C-170.22516832 184.60356419 -170.22516832 184.60356419 -174.59155273 188.44287109 C-175.15235031 188.93939682 -175.71314789 189.43592255 -176.29093933 189.94749451 C-178.18183874 191.50093922 -180.06066311 192.86716994 -182.07444763 194.24583435 C-189.79345136 199.65460053 -189.79345136 199.65460053 -193.86601257 207.80769348 C-194.37860584 212.27854929 -194.13161927 216.70774664 -193.88452148 221.18896484 C-193.84814711 222.8340315 -193.81868447 224.4792639 -193.79574585 226.12457275 C-193.72020358 230.42541483 -193.56402089 234.71922682 -193.3861084 239.01690674 C-193.11548489 245.90435511 -192.97254497 252.79574193 -192.82358932 259.68668365 C-192.76077279 262.07881352 -192.66530816 264.46781486 -192.56387329 266.85858154 C-192.24728541 275.8249699 -192.81942093 281.58306706 -198.22827148 289.06396484 C-204.56771031 295.4989731 -212.01503595 298.31411448 -221.00424176 298.42575929 C-221.87835964 298.41668047 -222.75247751 298.40760165 -223.6530838 298.39824772 C-225.0917291 298.40741776 -225.0917291 298.40741776 -226.55943793 298.41677305 C-229.76216831 298.43233059 -232.96413686 298.41952378 -236.16687012 298.40675354 C-238.49064083 298.41208049 -240.8144081 298.41914702 -243.13816881 298.4278006 C-249.51542934 298.4464347 -255.89245776 298.44012012 -262.26972795 298.42964756 C-268.44358787 298.42142209 -274.6174173 298.43586125 -280.79126458 298.44770255 C-294.19566675 298.4726196 -307.59999823 298.47453001 -321.00441681 298.46642844 C-332.73489231 298.45935332 -344.46534039 298.4593005 -356.19581604 298.46629143 C-357.76984255 298.46720276 -359.34386907 298.46811352 -360.91789559 298.46902372 C-363.28985182 298.47040686 -365.66180805 298.47179795 -368.03376427 298.47320985 C-390.08231384 298.48618839 -412.13085422 298.4913076 -434.17940521 298.47967625 C-435.01034319 298.47923828 -435.84128118 298.47880031 -436.6973991 298.47834906 C-443.44504796 298.4747423 -450.19269669 298.4709075 -456.94034541 298.46705813 C-483.26471209 298.45220854 -509.58897503 298.46099394 -535.91333008 298.48901367 C-565.49497606 298.52044033 -595.07656064 298.5354122 -624.65822363 298.52521366 C-627.81218305 298.52417689 -630.96614248 298.52318966 -634.12010193 298.52223015 C-635.28496366 298.52185682 -635.28496366 298.52185682 -636.47335795 298.52147595 C-648.1959293 298.51803592 -659.91844641 298.52734179 -671.64100647 298.54300117 C-684.97127342 298.56076733 -698.30140835 298.56090564 -711.63166964 298.53764952 C-718.43391343 298.52624807 -725.23589358 298.52338337 -732.03812981 298.54195023 C-738.26447581 298.55872666 -744.49035575 298.55244156 -750.71667141 298.52773344 C-752.96956172 298.52284056 -755.22248943 298.52639175 -757.47534853 298.53922088 C-760.53840483 298.55540557 -763.59985009 298.54075408 -766.66283417 298.51850224 C-767.53695204 298.53049391 -768.41106991 298.54248559 -769.3116762 298.55484065 C-777.25783751 298.43701757 -783.62515877 295.53772407 -789.59545898 290.32958984 C-790.27608398 289.52521484 -790.95670898 288.72083984 -791.65795898 287.89208984 C-792.21483398 287.25271484 -792.77170898 286.61333984 -793.34545898 285.95458984 C-796.4370468 281.09638042 -796.91644817 276.30957109 -796.96435547 270.65258789 C-796.97267899 269.95415771 -796.9810025 269.25572754 -796.98957825 268.53613281 C-797.01354585 266.24196694 -797.0224341 263.94808614 -797.02905273 261.65380859 C-797.03802944 260.04726584 -797.04715146 258.44072389 -797.05641174 256.83418274 C-797.07286854 253.47105891 -797.08059574 250.10803424 -797.08349609 246.74487305 C-797.08887526 242.45433003 -797.12654934 238.16473052 -797.17224026 233.87445354 C-797.20211499 230.5568153 -797.2092219 227.2394014 -797.21022224 223.9216404 C-797.21440424 222.34090671 -797.2267567 220.7601711 -797.24773979 219.17957115 C-797.36739218 209.387041 -797.02415061 201.49614251 -789.90232849 194.05863953 C-784.057307 188.49450423 -778.03368775 186.51600194 -770.04992008 186.52294636 C-769.31246574 186.51948482 -768.5750114 186.51602329 -767.81520995 186.51245686 C-765.34852891 186.50452743 -762.88243747 186.51796494 -760.41578674 186.53132629 C-758.6278302 186.53001776 -756.83987422 186.52739047 -755.05192131 186.5235588 C-750.14218311 186.51685121 -745.23264126 186.52885033 -740.32292807 186.54389298 C-735.02715986 186.55684508 -729.73140277 186.55246446 -724.43562317 186.55018616 C-715.26145872 186.5486129 -706.08735827 186.55802759 -696.91320992 186.57489967 C-683.64893142 186.59927799 -670.38468387 186.60709375 -657.1203854 186.61086365 C-635.60009616 186.61742996 -614.07984103 186.63739602 -592.55957031 186.66577148 C-571.65429861 186.69330739 -550.74903617 186.71454327 -529.84375 186.72729492 C-527.91093546 186.72847718 -527.91093546 186.72847718 -525.93907417 186.72968332 C-519.47484988 186.73359842 -513.01062554 186.73738955 -506.54640114 186.74111903 C-452.91689685 186.77222053 -399.28742958 186.82506125 -345.65795898 186.89208984 C-345.48006836 185.73386719 -345.48006836 185.73386719 -345.29858398 184.55224609 C-344.40571443 180.84465972 -342.48113847 179.39445348 -339.65795898 176.89208984 C-338.89483398 176.19083984 -338.13170898 175.48958984 -337.34545898 174.76708984 C-333.91910797 172.37661239 -330.61090404 171.23207122 -326.65795898 169.89208984 C-328.63795898 166.92208984 -330.61795898 163.95208984 -332.65795898 160.89208984 C-331.88411865 160.77526855 -331.11027832 160.65844727 -330.31298828 160.53808594 C-317.05948128 158.52040854 -303.85340256 156.25798336 -290.65795898 153.89208984 C-289.81604004 153.74578125 -288.97412109 153.59947266 -288.10668945 153.44873047 C-257.18149194 147.96884388 -223.32155913 136.11832227 -200.65795898 113.89208984 C-200.06756836 113.32619141 -199.47717773 112.76029297 -198.86889648 112.17724609 C-194.56582015 107.68042936 -191.56585258 102.52505555 -188.40795898 97.20458984 C-183.53232445 89.00210116 -178.11867897 81.89605355 -171.65795898 74.89208984 C-170.58674805 73.68166016 -170.58674805 73.68166016 -169.49389648 72.44677734 C-165.21445712 67.84678072 -160.51526711 64.16928389 -155.34545898 60.64208984 C-154.76570312 60.24159424 -154.18594727 59.84109863 -153.58862305 59.4284668 C-143.60872131 52.88068424 -132.83794974 49.95722238 -121.22045898 47.76708984 C-118.76313981 47.28678974 -116.30610591 46.80502777 -113.84936523 46.32177734 C-112.66101074 46.09071289 -111.47265625 45.85964844 -110.24829102 45.62158203 C-105.53581018 44.66408898 -100.86070106 43.56953441 -96.18505859 42.44726562 C-93.65795898 41.89208984 -93.65795898 41.89208984 -91.65795898 41.89208984 C-91.65795898 40.90208984 -91.65795898 39.91208984 -91.65795898 38.89208984 C-92.31795898 38.89208984 -92.97795898 38.89208984 -93.65795898 38.89208984 C-92.98698227 34.69848536 -90.80211958 31.48874633 -88.65795898 27.89208984 C-84.70468467 28.52085559 -81.4738309 29.78544365 -77.84545898 31.45458984 C-68.98799304 35.16587886 -64.06695167 34.2894432 -55.14233398 31.10693359 C-51.11704431 29.7034974 -47.05934931 28.46970464 -42.97045898 27.26708984 C-41.93804077 26.95831909 -41.93804077 26.95831909 -40.88476562 26.64331055 C-39.86950806 26.34493286 -39.86950806 26.34493286 -38.83374023 26.04052734 C-37.80482666 25.73127319 -37.80482666 25.73127319 -36.75512695 25.41577148 C-34.65795898 24.89208984 -34.65795898 24.89208984 -32.54907227 24.71020508 C-24.12870085 23.79675442 -19.31310629 17.09361164 -13.90795898 11.20458984 C-12.38926652 9.55713344 -10.86588607 7.9161342 -9.32196045 6.2922821 C-7.93071279 4.82862388 -6.56175235 3.34387636 -5.1940918 1.8581543 C-2.65795898 -0.10791016 -2.65795898 -0.10791016 0 0 Z " fill="#D9DADF" transform="translate(1108.657958984375,349.10791015625)"/>
<path d="M0 0 C1.0981604 0.00323273 1.0981604 0.00323273 2.21850586 0.00653076 C36.02863571 0.16643105 64.2538445 12.09590706 88.875 35.3125 C89.54015625 35.91320312 90.2053125 36.51390625 90.890625 37.1328125 C101.95955083 47.52680383 109.84229438 60.49554943 115.875 74.3125 C116.15714355 74.95799805 116.43928711 75.60349609 116.72998047 76.26855469 C129.2666491 105.65621987 129.84331418 139.06461216 118.0625 168.8125 C104.43788676 201.45355444 80.56222905 226.3432649 47.91552734 240.140625 C18.78760456 252.03014535 -15.99429272 252.24341802 -45.125 240.3125 C-76.45058606 226.64784106 -101.07302915 203.11742529 -114.27734375 171.47851562 C-116.47192649 165.87069935 -118.14972714 160.13828116 -119.62109375 154.30322266 C-120.08516031 152.46988992 -120.58769925 150.64640956 -121.09375 148.82421875 C-128.34394946 119.1856719 -121.47715622 86.28896268 -106.125 60.3125 C-100.64405828 51.59251305 -94.23159373 43.76000044 -87.125 36.3125 C-86.26261719 35.33796875 -86.26261719 35.33796875 -85.3828125 34.34375 C-63.90271575 11.04977842 -30.94919211 -0.16332258 0 0 Z " fill="#FEFEFE" transform="translate(697.125,121.6875)"/>
<path d="M0 0 C0.73473785 -0.00641296 1.4694757 -0.01282591 2.22647834 -0.0194332 C4.6961402 -0.0360773 7.16483749 -0.02417102 9.63451576 -0.01244164 C11.41988726 -0.01848108 13.20525359 -0.02625825 14.99061072 -0.03562677 C19.90277 -0.05625097 24.8146384 -0.05180702 29.7268219 -0.04326558 C35.02210987 -0.03834269 40.31732674 -0.05634494 45.61258888 -0.07134056 C55.98897514 -0.09687128 66.36525798 -0.10041738 76.74167036 -0.09574004 C85.17399801 -0.09217744 93.6062942 -0.09566489 102.03861809 -0.10418892 C103.23765099 -0.1053793 104.4366839 -0.10656968 105.67205114 -0.10779613 C108.10770436 -0.11021957 110.54335757 -0.11264784 112.97901078 -0.11508088 C135.83340695 -0.13684617 158.68774414 -0.13250017 181.54214366 -0.12031119 C202.45961754 -0.10997191 223.37690517 -0.13248356 244.2943422 -0.17050762 C265.76139754 -0.20923227 287.22836469 -0.22578206 308.69545519 -0.21826112 C320.75199042 -0.21443209 332.8083671 -0.21946064 344.86487389 -0.2476902 C355.12885633 -0.27147898 365.39258267 -0.27437162 375.65656851 -0.25010987 C380.89497628 -0.23830472 386.13291515 -0.23620842 391.37129211 -0.26011467 C396.16558921 -0.28174029 400.95902335 -0.27573798 405.75327928 -0.2475913 C407.48877403 -0.2422717 409.22433541 -0.24711102 410.959765 -0.26306303 C425.55749439 -0.38794448 425.55749439 -0.38794448 430.0682869 3.4715004 C430.91760977 4.47385916 431.76693264 5.47621792 432.64199257 6.50895119 C438.92418279 9.99905686 447.64116226 9.38530931 454.64199257 8.50895119 C460.03075536 6.7961415 464.19224614 3.91875687 468.64199257 0.50895119 C475.31659727 8.15328208 481.94605257 15.81286381 488.33339882 23.70035744 C491.05543299 27.01193539 493.84337304 30.2620964 496.64199257 33.50895119 C501.74407587 39.42873335 506.72943547 45.43028205 511.64199257 51.50895119 C523.94359664 43.78528293 536.00341989 35.80848586 547.70449257 27.19645119 C548.50177773 26.60984718 549.29906288 26.02324318 550.12050819 25.4188633 C553.52307082 22.89539205 556.86445246 20.35518087 560.07558632 17.59098244 C562.64199257 15.50895119 562.64199257 15.50895119 564.64199257 15.50895119 C564.73483554 23.61944776 564.8058293 31.72972084 564.84924126 39.84061813 C564.87008111 43.6072071 564.89833165 47.37343143 564.94375038 51.13981056 C564.98733855 54.77731706 565.01115676 58.41447371 565.02150154 62.0522213 C565.02886983 63.43727943 565.04325861 64.82231926 565.0649128 66.20722771 C565.2480138 78.40716892 565.2480138 78.40716892 562.99257851 82.21940041 C557.53638953 87.53391435 552.3862857 87.9444416 545.15912056 87.88926792 C544.20681744 87.89392784 543.25451431 87.89858776 542.27335352 87.90338889 C539.06980016 87.91537698 535.86666793 87.90592858 532.66311073 87.89663124 C530.34819292 87.90080247 528.03327715 87.90627882 525.71836519 87.91295105 C519.34718154 87.92745183 512.97612673 87.92314646 506.60493588 87.91578424 C500.44272724 87.91009072 494.2805373 87.92135388 488.1183369 87.93069186 C474.7349174 87.95037159 461.3515366 87.95270373 447.96810608 87.94749666 C436.25615024 87.94294206 424.54420975 87.94353545 412.83225441 87.94933701 C411.26212069 87.95009387 409.69198698 87.95084985 408.12185326 87.95160495 C405.7559045 87.95275012 403.38995575 87.9539 401.024007 87.95506419 C379.0240455 87.96577122 357.02408912 87.97049229 335.02412605 87.96259403 C333.77982025 87.96214827 333.77982025 87.96214827 332.51037696 87.96169351 C325.77364305 87.95924449 319.0369092 87.95663294 312.30017535 87.95400937 C286.01679198 87.94390495 259.73347249 87.95226522 233.45009804 87.97550392 C203.93005298 88.00156204 174.41004637 88.01442845 144.88998938 88.00731617 C141.74390317 88.00660009 138.59781695 88.00592571 135.45173073 88.00527573 C134.67706685 88.00510592 133.90240297 88.00493611 133.10426443 88.00476115 C121.39879309 88.00245596 109.6933574 88.01044556 97.98789406 88.0235672 C84.68012379 88.03845826 71.37243721 88.03934866 58.06466877 88.02149629 C51.27108124 88.01275842 44.47766339 88.0109161 37.68408203 88.02614784 C31.47018205 88.0399078 25.25658042 88.03534426 19.04269809 88.01590861 C16.78975822 88.01212149 14.53679494 88.01514776 12.28387576 88.02552026 C9.23050793 88.03858299 6.17818633 88.02720223 3.12486458 88.00952244 C1.80102364 88.02399821 1.80102364 88.02399821 0.45043844 88.03876641 C-4.96974127 87.97395853 -8.0615828 87.11859913 -12.35800743 83.50895119 C-15.90866438 79.2211874 -16.86040863 76.29913643 -16.87558556 70.77262306 C-16.88259483 70.12789543 -16.88960411 69.4831678 -16.89682579 68.81890297 C-16.91431592 66.70472041 -16.9028171 64.59189543 -16.88925743 62.47770119 C-16.89195498 60.99849124 -16.89583959 59.51928302 -16.90085411 58.04007912 C-16.90673692 54.94668559 -16.89822622 51.85375549 -16.87949181 48.76041603 C-16.85670217 44.80590614 -16.86983192 40.85248226 -16.89378166 36.89801216 C-16.9082731 33.84551833 -16.90361852 30.79327971 -16.89327049 27.74077797 C-16.89061241 26.28320625 -16.89384055 24.82561095 -16.90318871 23.36806679 C-16.91341064 21.3265182 -16.89777924 19.28669982 -16.87558556 17.24527931 C-16.87240318 16.08645241 -16.86922081 14.9276255 -16.865942 13.73368263 C-16.08375634 8.76780938 -13.70378239 5.83152275 -10.17537344 2.36394942 C-6.56088436 -0.01588722 -4.31115255 0.00570654 0 0 Z " fill="#F7FAFD" transform="translate(339.3580074310303,547.4910488128662)"/>
<path d="M0 0 C2.84912757 13.0145098 5.3107048 26.06711842 7.57568359 39.19506836 C10.88111399 58.32983763 14.36154538 77.4259238 18 96.5 C21.81675172 116.51658999 25.43607992 136.56141172 28.93725586 156.63549805 C31.04924043 168.7276925 33.21381094 180.80114438 35.6809082 192.8269043 C35.85968506 193.71547119 36.03846191 194.60403809 36.22265625 195.51953125 C36.37484619 196.25276611 36.52703613 196.98600098 36.68383789 197.74145508 C37.46335165 203.31001242 36.72053194 207.5894797 34.953125 212.91015625 C34.63441437 213.88329018 34.63441437 213.88329018 34.30926514 214.87608337 C33.63111671 216.94106235 32.94101477 219.00179524 32.25 221.0625 C31.57859464 223.09102711 30.90970588 225.12037269 30.24092102 227.14976501 C29.79878392 228.49085415 29.35573858 229.83164419 28.91178894 231.1721344 C26.84691883 237.41958071 24.90524103 243.70209158 23 250 C22.57775146 251.39206665 22.57775146 251.39206665 22.14697266 252.81225586 C21.60243774 254.60922107 21.05840355 256.4063381 20.51489258 258.20361328 C17.28440535 268.87785227 13.94619434 279.51394008 10.55078125 290.13671875 C8.10985372 297.77718625 5.77202841 305.44794073 3.44921875 313.125 C0.18270532 323.90846325 -3.13987139 334.67004541 -6.57641602 345.40063477 C-8.17107873 350.38174157 -9.7333832 355.3695879 -11.25 360.375 C-12.65893867 364.99656175 -14.23618213 369.50226443 -16 374 C-21.26870634 373.25828891 -26.26976631 371.89090385 -31.375 370.4375 C-32.20644531 370.20353516 -33.03789063 369.96957031 -33.89453125 369.72851562 C-35.93048609 369.15517202 -37.96535527 368.5779756 -40 368 C-40.11660806 358.93494487 -39.83547755 350.01403435 -39.046875 340.984375 C-38.94674103 339.7857634 -38.84660706 338.58715179 -38.74343872 337.35221863 C-38.41841114 333.48426573 -38.08461477 329.61713436 -37.75 325.75 C-37.5780359 323.73413298 -37.40685596 321.71820027 -37.23568535 319.70226574 C-34.79171733 290.94447144 -32.28246193 262.18230396 -28.95068359 233.51147461 C-26.07974438 211.79310734 -26.07974438 211.79310734 -30.1875 190.625 C-30.53844727 189.65949219 -30.88939453 188.69398438 -31.25097656 187.69921875 C-40.66467729 162.37245141 -51.54384984 136.25903316 -67 114 C-68.00148524 121.78399574 -68.40379296 129.57783659 -68.78823471 137.41067886 C-68.91514044 139.99607186 -69.04537385 142.58128101 -69.17630005 145.16647339 C-69.37057062 149.00816955 -69.56347948 152.84993081 -69.75546265 156.69174194 C-70.29311698 167.43302381 -70.84663435 178.17350002 -71.3984375 188.9140625 C-71.45867537 190.08742598 -71.51891323 191.26078945 -71.58097649 192.4697094 C-73.15665953 223.1521924 -74.7507283 253.83370935 -76.38273144 284.5132513 C-76.83127739 292.94802753 -77.27688001 301.38293647 -77.71487427 309.81826782 C-78.09237307 317.08835783 -78.47561749 324.35811643 -78.86622143 331.6275146 C-79.06812135 335.38831061 -79.26725211 339.1492021 -79.45923233 342.91051865 C-79.66967971 347.03160627 -79.89318325 351.15188374 -80.11791992 355.2722168 C-80.17769044 356.48236356 -80.23746096 357.69251032 -80.2990427 358.93932819 C-80.36186908 360.05249 -80.42469545 361.1656518 -80.48942566 362.31254578 C-80.54008273 363.27243251 -80.5907398 364.23231924 -80.64293194 365.22129345 C-81.04287967 368.33368992 -81.92345154 371.05918688 -83 374 C-85.52019972 374.33885038 -88.04098516 374.67120335 -90.5625 375 C-91.61920898 375.14308594 -91.61920898 375.14308594 -92.69726562 375.2890625 C-97.17367855 375.86666417 -101.48661238 376.09489383 -106 376 C-109.62888269 357.25077275 -111.82600524 338.27606942 -114.2265625 319.33984375 C-114.65065304 315.99734638 -115.07516525 312.65490286 -115.5 309.3125 C-115.65899277 308.06048294 -115.65899277 308.06048294 -115.82119751 306.78317261 C-117.26946133 295.40230283 -118.83241178 284.04726532 -120.55297852 272.70385742 C-122.34392492 260.85626572 -123.89216315 248.97829366 -125.45703125 237.09912109 C-126.33048938 230.48901154 -127.22658349 223.88194122 -128.12112427 217.2746582 C-128.43905851 214.92598683 -128.7565663 212.57725813 -129.07397461 210.22851562 C-130.02687509 203.17926058 -130.98161473 196.13026439 -131.94204712 189.08203125 C-132.46232673 185.26315141 -132.98143154 181.44411254 -133.5 177.625 C-133.6033667 176.86407043 -133.7067334 176.10314087 -133.81323242 175.31915283 C-135.30800122 164.2994497 -136.73599694 153.27249556 -138.13064575 142.23971558 C-138.23190765 141.43873444 -138.33316956 140.6377533 -138.4375 139.8125 C-138.53868134 139.01192169 -138.63986267 138.21134338 -138.74411011 137.38650513 C-140.38680703 124.42553701 -142.19003608 111.49211888 -144.0625 98.5625 C-145.82603216 86.36668728 -147.56092497 74.16944707 -149.11227417 61.94454956 C-149.36625854 59.94385839 -149.62458052 57.94371934 -149.88305664 55.94360352 C-150.63357191 49.91318302 -151.19701779 44.07724091 -151 38 C-145.35333719 35.80693392 -139.70494281 33.95063262 -133.875 32.3125 C-132.51882568 31.92904419 -132.51882568 31.92904419 -131.13525391 31.5378418 C-118.12789802 27.88476303 -105.06981757 24.42146532 -92 21 C-90.77978149 20.68005066 -90.77978149 20.68005066 -89.53491211 20.3536377 C-66.60124287 14.34387828 -43.66119804 8.57304307 -20.45068359 3.7265625 C-18.00340785 3.21127365 -15.55864046 2.68400615 -13.11572266 2.1484375 C-11.85679199 1.87257813 -10.59786133 1.59671875 -9.30078125 1.3125 C-8.16423096 1.06113281 -7.02768066 0.80976562 -5.85668945 0.55078125 C-3 0 -3 0 0 0 Z " fill="#0664BD" transform="translate(1195,609)"/>
<path d="M0 0 C4.30921806 2.48977043 6.15273052 5.43043867 8 10 C8 10.99 8 11.98 8 13 C20.21 13 32.42 13 45 13 C45.33 11.02 45.66 9.04 46 7 C47.75633338 4.08093721 49.91708361 1.5414582 53 0 C59.35166222 -0.50949162 63.11111809 0.51436029 68.5625 3.6875 C69.22378906 4.05109619 69.88507812 4.41469238 70.56640625 4.78930664 C73.81513556 6.60664517 76.70214466 8.46666671 79.5 10.9375 C82.74250639 13.39736609 85.80696364 13.38917961 89.79711914 13.60205078 C90.46069207 13.63893068 91.124265 13.67581059 91.80794621 13.71380806 C98.78296751 14.08280554 105.76357893 14.27026241 112.74609375 14.4296875 C114.14203438 14.46438721 115.53796414 14.4995262 116.93388367 14.5350647 C119.89708287 14.61047477 122.86030417 14.68488422 125.82354736 14.75854492 C151.25586848 15.39589773 176.67465218 16.21646516 202.08745193 17.40518951 C204.09646986 17.49867245 206.10559241 17.58989816 208.11471558 17.68109131 C220.4020176 18.24369158 232.67755538 18.86326186 244.9296875 19.96875 C245.77048859 20.04154175 246.61128967 20.1143335 247.47756958 20.18933105 C251.91132866 20.62293425 255.80663396 21.38762004 260 23 C255.37815107 26.08123262 251.30040031 26.23014915 245.79663086 26.69897461 C245.0809173 26.75994638 244.36520374 26.82091816 243.6278019 26.88373756 C241.26137579 27.08259456 238.8944833 27.27467479 236.52734375 27.46484375 C235.70587294 27.53133558 234.88440212 27.59782742 234.03803825 27.66633415 C216.70094713 29.05531382 199.36456333 29.87110378 181.98467255 30.47727203 C179.50338287 30.56458013 177.02222403 30.65501848 174.54107666 30.74627686 C135.66261761 32.17242024 96.7711095 33.0655481 57.87530899 33.85898781 C52.02115634 33.97845351 46.16711966 34.10270255 40.31314087 34.23043823 C-33.21808749 35.79693666 -106.74759759 36.16320889 -180.29324889 36.16725707 C-187.60468779 36.16776266 -194.91612547 36.17008127 -202.22756386 36.17275429 C-226.6914816 36.18150659 -251.15539507 36.186183 -275.61931439 36.18542381 C-276.92129074 36.18538386 -278.22326709 36.1853439 -279.56469727 36.18530273 C-281.52024639 36.18524141 -281.52024639 36.18524141 -283.51530156 36.18517885 C-303.18541963 36.18480029 -322.85552137 36.19263401 -342.52563477 36.20581055 C-563.05989486 36.35082589 -563.05989486 36.35082589 -673.73413086 34.12961006 C-680.15953525 33.99594916 -686.58506416 33.86903633 -693.01062012 33.74290466 C-697.15788165 33.66108227 -701.30513859 33.57903015 -705.45239258 33.49682617 C-706.38846521 33.47829039 -707.32453784 33.45975461 -708.28897631 33.44065714 C-740.9022421 32.79166129 -773.50237854 31.82522558 -806.09884644 30.59525681 C-807.76014878 30.53261202 -809.4214644 30.47031814 -811.08279419 30.4084053 C-827.20017474 29.80758553 -843.30648855 29.13619048 -859.3984375 28.03125 C-860.48935699 27.95845825 -861.58027649 27.8856665 -862.70425415 27.81066895 C-883.73107922 26.26892078 -883.73107922 26.26892078 -887 23 C-881.05034228 20.49488096 -874.98398533 20.38736724 -868.625 20 C-866.75352295 19.87818359 -866.75352295 19.87818359 -864.84423828 19.75390625 C-862.2003416 19.58275895 -859.55640621 19.41459666 -856.91210938 19.25 C-853.29909326 19.0191133 -849.68882986 18.76424827 -846.078125 18.5 C-790.30337072 14.53902154 -734.20197013 14.22057741 -678.31481171 13.04858398 C-676.15715603 13.00329844 -673.99950612 12.95774888 -671.84185791 12.91210938 C-670.58774109 12.88568359 -669.33362427 12.85925781 -668.04150391 12.83203125 C-666.46497543 12.79879761 -666.46497543 12.79879761 -664.8565979 12.76489258 C-651.53638028 12.49402141 -638.21570445 12.27236227 -624.89441037 12.06228971 C-620.97904175 11.99966478 -617.06372413 11.93437717 -613.14840508 11.86873245 C-557.04729727 10.93747595 -500.95712959 10.93991953 -444.84974164 11.0870496 C-426.00051979 11.13639515 -407.15131233 11.17293452 -388.30204527 11.19992666 C-386.13303878 11.20303923 -383.96403236 11.2061934 -381.79502595 11.20936196 C-375.22194591 11.21896385 -368.64886576 11.22848447 -362.07578548 11.23792063 C-346.47101311 11.26034154 -330.86624258 11.28377349 -315.26147461 11.30908203 C-314.14752523 11.31087933 -314.14752523 11.31087933 -313.01107182 11.31271294 C-288.74081575 11.35201816 -264.4706519 11.41144062 -240.20046128 11.47954747 C-215.06534678 11.54995181 -189.93028567 11.59717058 -164.79507767 11.61631292 C-161.25142543 11.61902921 -157.70777348 11.62202596 -154.16412163 11.62520218 C-153.11859847 11.62612987 -153.11859847 11.62612987 -152.05195364 11.6270763 C-140.87331761 11.63770602 -129.69489071 11.67295889 -118.51634541 11.71786303 C-107.32731931 11.76233515 -96.13847494 11.78106568 -84.9493419 11.77499644 C-78.89783645 11.77249504 -72.84691189 11.78144857 -66.79552269 11.82098007 C-61.25838595 11.85691733 -55.72220151 11.86054598 -50.18500071 11.83850498 C-48.1838687 11.83624129 -46.18268056 11.84582325 -44.1816758 11.8685035 C-32.96379837 11.98852509 -25.68242382 11.82184522 -17 4 C-11.29668943 0.73875319 -6.57868805 -0.87715841 0 0 Z " fill="#E8EAF0" transform="translate(1107,1000)"/>
<path d="M0 0 C1.96729648 -0.00761181 1.96729648 -0.00761181 3.97433633 -0.0153774 C5.44896452 -0.01597917 6.92359276 -0.01647822 8.39822102 -0.01688576 C9.94985878 -0.02089764 11.50149549 -0.0253354 13.05313092 -0.03016531 C17.33768046 -0.04216745 21.62221872 -0.04778767 25.90678179 -0.05234647 C30.5197449 -0.05828889 35.13269442 -0.06990217 39.74564838 -0.08063698 C50.89700249 -0.10519332 62.0483611 -0.11979341 73.19973394 -0.13269705 C76.34759033 -0.1364068 79.49544626 -0.14038021 82.6433022 -0.14444971 C102.17596705 -0.16968539 121.70863256 -0.19174643 141.24131012 -0.20417786 C145.76873687 -0.20710774 150.29616359 -0.21006937 154.82359028 -0.21308327 C155.94891268 -0.21382932 157.07423509 -0.21457537 158.23365817 -0.21534403 C176.46842674 -0.22800106 194.70309787 -0.26122669 212.93782087 -0.3028851 C231.64410745 -0.34527167 250.35034411 -0.36886916 269.05667859 -0.37409842 C279.56561397 -0.3775164 290.07439713 -0.38931698 300.58328533 -0.42220116 C309.53239777 -0.45015793 318.48132682 -0.46122031 327.43047955 -0.4500057 C331.99835242 -0.44480768 336.56584099 -0.44777959 341.13365841 -0.47247124 C345.31425489 -0.49488149 349.49418918 -0.49428849 353.67479662 -0.47526737 C355.18833145 -0.47245572 356.70191041 -0.47813032 358.21537402 -0.4930803 C370.94275924 -0.61112824 370.94275924 -0.61112824 374.88266182 2.5500145 C378.41834185 6.85783599 378.19593869 10.26464015 378.24424458 15.65263939 C378.25231632 16.5012252 378.26038807 17.34981102 378.26870441 18.22411156 C378.28254773 20.02302061 378.29326878 21.82195596 378.30112934 23.62090111 C378.31830946 26.36246167 378.36218816 29.10280595 378.40635395 31.84404564 C378.41648393 33.5927347 378.42499908 35.341434 378.43174458 37.09013939 C378.44925266 37.90597496 378.46676075 38.72181053 378.48479939 39.56236839 C378.46465749 44.89050591 377.56279337 47.92395302 374.00596333 52.13701439 C370.45718791 54.50286466 368.97135482 54.38988352 364.76303768 54.39707661 C363.4469079 54.4041422 362.13077811 54.41120779 360.77476561 54.41848749 C359.3053326 54.4162359 357.83589988 54.41378938 356.36646748 54.41116905 C354.8123894 54.41561895 353.2583136 54.42093218 351.70424116 54.42703778 C347.42226156 54.44125788 343.1403544 54.44288031 338.85835457 54.44244087 C334.24475627 54.44408554 329.63118812 54.45714541 325.01760578 54.46863365 C314.92479483 54.49150922 304.83200487 54.49940687 294.7391715 54.5044601 C288.44058035 54.50771387 282.14199532 54.51423437 275.84340763 54.52146149 C258.41378761 54.54103003 240.9841733 54.55743299 223.55454159 54.56033802 C222.43861532 54.56052559 221.32268905 54.56071316 220.17294683 54.56090641 C217.91057166 54.56127267 215.64819648 54.56163637 213.3858213 54.56199753 C212.26273379 54.56218034 211.13964629 54.56236315 209.98252583 54.5625515 C208.85807211 54.56273205 207.7336184 54.5629126 206.57509033 54.56309862 C188.34623456 54.56664186 170.11749679 54.59367251 151.88868196 54.63104939 C133.18572126 54.66909249 114.48281917 54.6884952 95.77981889 54.68879753 C85.27374719 54.68938297 74.76781629 54.69793071 64.26178074 54.7267952 C55.31743767 54.75125559 46.37328676 54.75862817 37.42891933 54.74354767 C32.86318766 54.73635703 28.29783583 54.73732842 23.73214626 54.75995827 C19.55475577 54.78046566 15.37803911 54.77802591 11.20065658 54.75708342 C9.68720337 54.75357264 8.17370235 54.7585654 6.66031189 54.77278786 C4.60624183 54.79085169 2.55456716 54.77823454 0.50057125 54.75784016 C-1.21199629 54.75906184 -1.21199629 54.75906184 -2.95916116 54.76030821 C-6.93827063 53.94309039 -8.43149513 52.21003709 -10.99403667 49.13701439 C-13.60554856 43.91399062 -12.30773841 35.56065775 -12.34413433 29.74370384 C-12.36069112 27.80282664 -12.38797755 25.86201033 -12.42616558 23.92143822 C-12.48097007 21.12188174 -12.50281331 18.32375401 -12.51747417 15.52373314 C-12.54014355 14.65898872 -12.56281292 13.79424431 -12.58616924 12.90329552 C-12.57044138 8.41115768 -12.46510143 6.71371721 -9.52382183 3.11284447 C-8.68899273 2.46082054 -7.85416363 1.80879662 -6.99403667 1.13701439 C-5.18895046 -0.66807183 -2.43212076 0.0049653 0 0 Z " fill="#066FD1" transform="translate(352.9940366744995,563.8629856109619)"/>
<path d="M0 0 C-0.51280126 8.90167664 -1.87308102 17.56021072 -3.46835327 26.31585693 C-10.66643574 66.08384456 -12.94744298 106.49073909 -14.90634155 146.80404663 C-15.35554951 156.04045402 -15.82781195 165.27570758 -16.29683876 174.51112556 C-16.47132038 177.94908379 -16.64525587 181.38706936 -16.81913757 184.82505798 C-18.29870966 214.04158809 -19.82378482 243.25574073 -21.37952137 272.46831036 C-21.87405722 281.75734676 -22.3633907 291.0466255 -22.84577906 300.33630085 C-23.18022497 306.76795315 -23.52091465 313.19925593 -23.86642206 319.63032341 C-24.06823274 323.39002344 -24.26727818 327.14981899 -24.459198 330.91003799 C-24.669653 335.03128605 -24.89317024 339.15172359 -25.11791992 343.2722168 C-25.17769107 344.48237237 -25.23746222 345.69252794 -25.29904461 346.9393549 C-25.36187036 348.05250789 -25.4246961 349.16566088 -25.48942566 350.31254578 C-25.54008273 351.27243251 -25.5907398 352.23231924 -25.64293194 353.22129345 C-26.04287967 356.33368992 -26.92345154 359.05918688 -28 362 C-30.52019972 362.33885038 -33.04098516 362.67120335 -35.5625 363 C-36.61920898 363.14308594 -36.61920898 363.14308594 -37.69726562 363.2890625 C-42.17367855 363.86666417 -46.48661238 364.09489383 -51 364 C-54.62888269 345.25077275 -56.82600524 326.27606942 -59.2265625 307.33984375 C-59.65065304 303.99734638 -60.07516525 300.65490286 -60.5 297.3125 C-60.65899277 296.06048294 -60.65899277 296.06048294 -60.82119751 294.78317261 C-62.26946133 283.40230283 -63.83241178 272.04726532 -65.55297852 260.70385742 C-67.34392492 248.85626572 -68.89216315 236.97829366 -70.45703125 225.09912109 C-71.33048938 218.48901154 -72.22658349 211.88194122 -73.12112427 205.2746582 C-73.43905851 202.92598683 -73.7565663 200.57725813 -74.07397461 198.22851562 C-75.02687509 191.17926058 -75.98161473 184.13026439 -76.94204712 177.08203125 C-77.46232673 173.26315141 -77.98143154 169.44411254 -78.5 165.625 C-78.6033667 164.86407043 -78.7067334 164.10314087 -78.81323242 163.31915283 C-80.30800122 152.2994497 -81.73599694 141.27249556 -83.13064575 130.23971558 C-83.23190765 129.43873444 -83.33316956 128.6377533 -83.4375 127.8125 C-83.53868134 127.01192169 -83.63986267 126.21134338 -83.74411011 125.38650513 C-85.38680703 112.42553701 -87.19003608 99.49211888 -89.0625 86.5625 C-90.82603216 74.36668728 -92.56092497 62.16944707 -94.11227417 49.94454956 C-94.36625854 47.94385839 -94.62458052 45.94371934 -94.88305664 43.94360352 C-95.63357191 37.91318302 -96.19701779 32.07724091 -96 26 C-90.35333715 23.8069339 -84.70495125 21.95061603 -78.875 20.3125 C-77.97595947 20.05831299 -77.07691895 19.80412598 -76.15063477 19.54223633 C-56.57778789 14.04565052 -36.90897047 8.93202579 -17.1875 4 C-16.381987 3.7983725 -15.576474 3.596745 -14.74655151 3.38900757 C-12.47077516 2.82014368 -10.19450712 2.25330585 -7.91796875 1.6875 C-7.23091858 1.51603958 -6.54386841 1.34457916 -5.83599854 1.16792297 C-1.11685514 0 -1.11685514 0 0 0 Z " fill="#076FD1" transform="translate(1140,621)"/>
<path d="M0 0 C-3.55299372 3.57794452 -7.10943651 7.15241386 -10.66894531 10.72387695 C-11.87625065 11.93617248 -13.08265234 13.1493687 -14.28808594 14.36352539 C-25.56663974 25.72157149 -25.56663974 25.72157149 -29.96875 29.58984375 C-30.52370148 30.07987381 -31.07865295 30.56990387 -31.65042114 31.07478333 C-33.53411651 32.61826067 -35.40865276 33.97794999 -37.41305542 35.34992981 C-45.13410241 40.7605396 -45.13410241 40.7605396 -49.20819092 48.91575623 C-49.72066291 53.38654301 -49.47365596 57.81573515 -49.2265625 62.296875 C-49.19018813 63.94194166 -49.16072549 65.58717406 -49.13778687 67.23248291 C-49.0622446 71.53332498 -48.90606191 75.82713698 -48.72814941 80.12481689 C-48.4575259 87.01226527 -48.31458598 93.90365209 -48.16563034 100.79459381 C-48.10281381 103.18672368 -48.00734917 105.57572502 -47.90591431 107.9664917 C-47.58932642 116.93288005 -48.16146194 122.69097722 -53.5703125 130.171875 C-59.90975133 136.60688326 -67.35707697 139.42202464 -76.34628278 139.53366944 C-77.65745959 139.52005122 -77.65745959 139.52005122 -78.99512482 139.50615788 C-79.95422168 139.51227123 -80.91331854 139.51838459 -81.90147895 139.52468321 C-85.10420933 139.54024075 -88.30617788 139.52743393 -91.50891113 139.5146637 C-93.83268185 139.51999064 -96.15644912 139.52705718 -98.48020983 139.53571075 C-104.85747035 139.55434486 -111.23449877 139.54803027 -117.61176896 139.53755772 C-123.78562888 139.52933225 -129.95945832 139.5437714 -136.13330559 139.55561271 C-149.53770777 139.58052975 -162.94203925 139.58244016 -176.34645782 139.57433859 C-188.07693333 139.56726347 -199.80738141 139.56721065 -211.53785706 139.57420158 C-213.11188357 139.57511292 -214.68591009 139.57602368 -216.2599366 139.57693387 C-218.63189284 139.57831701 -221.00384907 139.5797081 -223.37580529 139.58112001 C-245.42435485 139.59409855 -267.47289524 139.59921775 -289.52144623 139.5875864 C-290.35238421 139.58714843 -291.18332219 139.58671046 -292.03944011 139.58625922 C-298.78708897 139.58265245 -305.53473771 139.57881765 -312.28238643 139.57496829 C-338.60675311 139.56011869 -364.93101604 139.56890409 -391.25537109 139.59692383 C-420.83701708 139.62835049 -450.41860165 139.64332236 -480.00026464 139.63312382 C-483.15422407 139.63208704 -486.3081835 139.63109982 -489.46214294 139.6301403 C-490.62700467 139.62976697 -490.62700467 139.62976697 -491.81539897 139.6293861 C-503.53797032 139.62594607 -515.26048743 139.63525194 -526.98304749 139.65091133 C-540.31331443 139.66867748 -553.64344937 139.6688158 -566.97371066 139.64555968 C-573.77595445 139.63415823 -580.57793459 139.63129353 -587.38017082 139.64986038 C-593.60651683 139.66663681 -599.83239677 139.66035171 -606.05871242 139.63564359 C-608.31160274 139.63075072 -610.56453045 139.63430191 -612.81738955 139.64713103 C-615.88044585 139.66331573 -618.94189111 139.64866423 -622.00487518 139.62641239 C-623.31605199 139.64439991 -623.31605199 139.64439991 -624.65371722 139.66275081 C-632.59987852 139.54492773 -638.96719979 136.64563423 -644.9375 131.4375 C-645.618125 130.633125 -646.29875 129.82875 -647 129 C-647.8353125 128.0409375 -647.8353125 128.0409375 -648.6875 127.0625 C-651.77908781 122.20429058 -652.25848919 117.41748124 -652.30639648 111.76049805 C-652.31472 111.06206787 -652.32304352 110.3636377 -652.33161926 109.64404297 C-652.35558687 107.3498771 -652.36447512 105.05599629 -652.37109375 102.76171875 C-652.38007045 101.15517599 -652.38919248 99.54863404 -652.39845276 97.9420929 C-652.41490956 94.57896907 -652.42263676 91.2159444 -652.42553711 87.8527832 C-652.43091627 83.56224018 -652.46859035 79.27264068 -652.51428127 74.9823637 C-652.54415601 71.66472546 -652.55126292 68.34731156 -652.55226326 65.02955055 C-652.55644526 63.44881687 -652.56879772 61.86808125 -652.58978081 60.28748131 C-652.70943319 50.49495115 -652.36619163 42.60405267 -645.24436951 35.16654968 C-639.40531583 29.60809542 -633.38375182 27.62390257 -625.40757847 27.63085651 C-624.30392952 27.62566421 -624.30392952 27.62566421 -623.17798463 27.62036702 C-620.71704648 27.61243783 -618.25669937 27.62587488 -615.79579163 27.63923645 C-614.01195988 27.63792792 -612.2281287 27.63530061 -610.44430059 27.63146895 C-605.54596379 27.62476146 -600.6478238 27.63676035 -595.74951208 27.65180314 C-590.46601392 27.66475538 -585.1825269 27.66037461 -579.89901733 27.65809631 C-570.74613375 27.65652307 -561.59331431 27.66593766 -552.44044685 27.68280983 C-539.20693744 27.70718827 -525.97345905 27.71500392 -512.73992961 27.7187738 C-491.26955463 27.72534009 -469.79921384 27.7453061 -448.32885742 27.77368164 C-427.47208833 27.8012176 -406.61532852 27.82245345 -385.75854492 27.83520508 C-383.83021088 27.83638733 -383.83021088 27.83638733 -381.86292059 27.83759347 C-375.41368038 27.84150858 -368.9644401 27.8452997 -362.51519978 27.84902918 C-309.01010956 27.88013063 -255.50505645 27.93297129 -202 28 C-201.34 31.63 -200.68 35.26 -200 39 C-200.90547266 39.00097681 -201.81094532 39.00195362 -202.74385655 39.00296003 C-256.37920194 39.06119982 -310.01450673 39.13497212 -363.64980198 39.22898628 C-370.08619591 39.24025479 -376.52259007 39.25139319 -382.95898438 39.26245117 C-384.24038425 39.26465486 -385.52178412 39.26685854 -386.8420143 39.269129 C-407.60520429 39.30452596 -428.36839425 39.32937655 -449.13160326 39.35034702 C-470.42787013 39.37208997 -491.72409776 39.40512603 -513.02033126 39.44870156 C-526.16704377 39.47524423 -539.31370735 39.49292034 -552.46044533 39.49934604 C-561.46893915 39.50459192 -570.47737135 39.52078193 -579.48583217 39.54566566 C-584.68748999 39.55970808 -589.88903744 39.56884124 -595.09071541 39.56500816 C-599.85041189 39.56160704 -604.60987231 39.57191015 -609.36952041 39.59323552 C-611.09369918 39.59851963 -612.81790237 39.5987214 -614.54208101 39.59339563 C-616.88229073 39.58690194 -619.22171669 39.5987581 -621.56186104 39.61523914 C-623.51324382 39.61808705 -623.51324382 39.61808705 -625.50404847 39.62099248 C-630.62896424 40.17660133 -633.86702378 41.74453986 -637.3125 45.5625 C-639.99518689 49.43749218 -640.13724219 51.56596622 -640.17700195 56.28222656 C-640.18685875 57.24844185 -640.18685875 57.24844185 -640.19691467 58.23417664 C-640.21665227 60.3696606 -640.22831263 62.50507414 -640.23828125 64.640625 C-640.24235678 65.37048363 -640.2464323 66.10034225 -640.25063133 66.85231781 C-640.27149639 70.71713478 -640.28579485 74.58191622 -640.29516602 78.44677734 C-640.30621737 82.43266769 -640.34060053 86.41799774 -640.38033772 90.40369034 C-640.40652856 93.47327691 -640.41486011 96.54273066 -640.41844749 99.61241913 C-640.42330898 101.08119226 -640.43491062 102.54995963 -640.45348549 104.01862335 C-640.47792628 106.07959351 -640.4769039 108.13912355 -640.4699707 110.20019531 C-640.47583694 111.37108704 -640.48170319 112.54197876 -640.48774719 113.74835205 C-639.76454015 118.56973235 -637.73274032 121.61136854 -633.94229358 124.6490618 C-629.79869088 126.55157459 -626.14907301 126.41329915 -621.64017582 126.37752342 C-620.68902654 126.38188374 -619.73787726 126.38624407 -618.75790527 126.39073652 C-615.55225141 126.40173526 -612.34702383 126.39124907 -609.14137268 126.38095093 C-606.82731831 126.38440566 -604.51326557 126.38916898 -602.19921631 126.39513266 C-595.82576933 126.40769769 -589.4524565 126.40144726 -583.07900894 126.39217401 C-576.91603067 126.38463994 -570.75306624 126.39406945 -564.5900918 126.4016161 C-551.20362844 126.41742736 -537.81720798 126.41603852 -524.43074052 126.40737936 C-512.71553544 126.39983832 -501.0003461 126.39785996 -489.28513908 126.4014473 C-488.50861299 126.40167645 -487.73208689 126.40190561 -486.9320297 126.40214171 C-483.77999627 126.40307569 -480.62796284 126.40403089 -477.47592942 126.405021 C-447.89486409 126.41420223 -418.31382611 126.40587106 -388.732765 126.38973031 C-362.44284104 126.37549443 -336.15296068 126.37676571 -309.86303711 126.39111328 C-280.33824031 126.40717234 -250.8134677 126.41354975 -221.28866714 126.40427649 C-218.14200366 126.40331431 -214.99534017 126.4023758 -211.84867668 126.4014473 C-210.68646111 126.40109145 -210.68646111 126.40109145 -209.50076644 126.40072841 C-197.79265992 126.39731385 -186.08457086 126.40131083 -174.37646675 126.40888596 C-161.06502234 126.4174554 -147.75362761 126.41533712 -134.4421894 126.39904372 C-127.64661101 126.39100055 -120.85112663 126.38809894 -114.05554771 126.39799118 C-107.8398005 126.4069027 -101.62422439 126.40206374 -95.4084928 126.38605852 C-93.15485092 126.38269566 -90.90119471 126.38443834 -88.64756197 126.39168589 C-85.59338849 126.40075766 -82.53980745 126.39150306 -79.48566532 126.37752342 C-78.16139561 126.38805867 -78.16139561 126.38805867 -76.81037298 126.39880675 C-71.79859442 126.35269754 -68.33148938 125.80010169 -64 123 C-59.07709234 117.14631195 -59.47431948 111.15801838 -59.57527542 103.74537277 C-59.60201034 101.67627792 -59.60181974 99.60869823 -59.59457397 97.53945923 C-59.57898651 91.66245151 -59.6133605 85.78598632 -59.66015625 79.90917969 C-59.68703716 76.3022543 -59.68485784 72.69624176 -59.66569138 69.08928299 C-59.66461185 67.7201607 -59.67501631 66.3509777 -59.69731522 64.98203659 C-59.87244086 54.20374012 -59.87244086 54.20374012 -57.63299561 51.1138916 C-55.98193359 49.78466797 -55.98193359 49.78466797 -53 48 C-52.49992342 45.40687538 -52.49992342 45.40687538 -53 42.75 C-53.38545593 36.2498113 -51.02161737 32.88866331 -47 28 C-46.06027344 26.76636719 -46.06027344 26.76636719 -45.1015625 25.5078125 C-36.1865474 14.86944876 -22.60443896 6.57852694 -9.8125 1.375 C-9.17666992 1.11501221 -8.54083984 0.85502441 -7.88574219 0.5871582 C-4.6453855 -0.65012472 -3.38620076 -1.12873359 0 0 Z " fill="#262E44" transform="translate(964,508)"/>
<path d="M0 0 C2.70599632 2.70599632 2.5186759 4.54771085 2.96459961 8.3347168 C3.04507255 8.99454654 3.12554548 9.65437628 3.20845699 10.33420086 C3.38494047 11.78520909 3.55779703 13.23666179 3.72755051 14.68847275 C4.0045808 17.0388646 4.29567016 19.38711281 4.59109497 21.73526001 C5.13974245 26.09675807 5.68002795 30.45924115 6.21805 34.82206154 C6.82202924 39.71565288 7.42996666 44.60875345 8.03710938 49.50195312 C8.80496559 55.69287121 9.57165259 61.88392873 10.3347168 68.07543945 C10.95629975 73.11812607 11.58144046 78.16036028 12.20899773 83.20230675 C12.44675394 85.11796449 12.68317575 87.03378833 12.91824532 88.9497776 C13.24493134 91.61123787 13.5761428 94.27209761 13.90844727 96.93286133 C14.00456802 97.72497009 14.10068878 98.51707886 14.19972229 99.33319092 C14.64875716 103.29096452 14.64875716 103.29096452 16 107 C16.65226562 106.566875 17.30453125 106.13375 17.9765625 105.6875 C18.85054687 105.130625 19.72453125 104.57375 20.625 104 C21.48351563 103.443125 22.34203125 102.88625 23.2265625 102.3125 C26.62511466 100.70417109 28.30176668 100.15993133 32 101 C34.20360239 103.36350982 35.69032568 106.05892138 37.25 108.875 C38.10749823 110.3526532 38.9667965 111.82926369 39.828125 113.3046875 C40.1984082 113.96452637 40.56869141 114.62436523 40.95019531 115.30419922 C42.01308175 117.16576821 42.01308175 117.16576821 44 119 C48.7054049 119.31525574 52.69863815 118.77401623 57.2265625 117.53125 C58.40887451 117.21140137 59.59118652 116.89155273 60.80932617 116.56201172 C62.06849854 116.21154785 63.3276709 115.86108398 64.625 115.5 C65.95463982 115.13617117 67.28447755 114.77306494 68.61450195 114.41064453 C71.37054176 113.65799059 74.12501797 112.89994818 76.87841797 112.13769531 C80.83313662 111.04373056 84.79298234 109.96972301 88.75390625 108.8984375 C100.37071272 105.74319953 111.9537661 102.55519907 123.36987305 98.72607422 C126.80368463 97.5914373 129.33653857 97 133 97 C131.32144669 101.01096169 128.57281262 104.07072208 125.75 107.3125 C125.21189697 107.93294189 124.67379395 108.55338379 124.11938477 109.19262695 C109.54005123 125.89465428 93.72295285 141.3876284 78 157 C74.06279473 155.17705454 71.32574574 152.63074254 68.3125 149.5625 C67.78865723 149.03333984 67.26481445 148.50417969 66.72509766 147.95898438 C54.20573777 135.13855008 54.20573777 135.13855008 51 128 C50.34 128 49.68 128 49 128 C48.73058594 128.598125 48.46117187 129.19625 48.18359375 129.8125 C44.74219251 136.17284553 38.55416205 138.91491864 32.0390625 141.3359375 C29 142 29 142 20 142 C21.65 155.53 23.3 169.06 25 183 C19.18375 184.340625 13.3675 185.68125 7.375 187.0625 C3.7681561 187.89551994 0.16135436 188.72871487 -3.4453125 189.5625 C-9.68880061 191.00575295 -15.93337026 192.44404262 -22.1796875 193.875 C-44.90790996 199.10138742 -67.50097459 204.82758397 -89.96484375 211.09790039 C-95.27983341 212.57327924 -100.60619192 213.84341189 -106 215 C-106 214.34 -106 213.68 -106 213 C-108.97 213.33 -111.94 213.66 -115 214 C-109.6869558 208.50985433 -103.97773343 203.42465951 -98.18969727 198.44140625 C-93.11842823 194.06379857 -88.2964909 189.48937533 -83.5625 184.75 C-82.44391602 183.63020752 -82.44391602 183.63020752 -81.30273438 182.48779297 C-75.79665992 176.92040633 -70.80901548 171.18164864 -66 165 C-64.56390298 163.29048709 -63.12634982 161.58219659 -61.6875 159.875 C-38.14417363 131.03134361 -20.09358582 96.82312722 -10 61 C-9.73944824 60.07558105 -9.47889648 59.15116211 -9.21044922 58.19873047 C-3.91490023 39.05476093 -0.99680357 19.83295387 0 0 Z " fill="#C4C6CA" transform="translate(1170,426)"/>
<path d="M0 0 C1.0981604 0.00323273 1.0981604 0.00323273 2.21850586 0.00653076 C36.02863571 0.16643105 64.2538445 12.09590706 88.875 35.3125 C89.54015625 35.91320312 90.2053125 36.51390625 90.890625 37.1328125 C101.95955083 47.52680383 109.84229438 60.49554943 115.875 74.3125 C116.15714355 74.95799805 116.43928711 75.60349609 116.72998047 76.26855469 C129.2666491 105.65621987 129.84331418 139.06461216 118.0625 168.8125 C104.43788676 201.45355444 80.56222905 226.3432649 47.91552734 240.140625 C18.78760456 252.03014535 -15.99429272 252.24341802 -45.125 240.3125 C-76.45058606 226.64784106 -101.07302915 203.11742529 -114.27734375 171.47851562 C-116.47192649 165.87069935 -118.14972714 160.13828116 -119.62109375 154.30322266 C-120.08516031 152.46988992 -120.58769925 150.64640956 -121.09375 148.82421875 C-128.34394946 119.1856719 -121.47715622 86.28896268 -106.125 60.3125 C-100.64405828 51.59251305 -94.23159373 43.76000044 -87.125 36.3125 C-86.26261719 35.33796875 -86.26261719 35.33796875 -85.3828125 34.34375 C-63.90271575 11.04977842 -30.94919211 -0.16332258 0 0 Z M-79.125 45.3125 C-80.03121094 46.22 -80.93742188 47.1275 -81.87109375 48.0625 C-88.06307367 54.54664335 -92.76820791 61.49285804 -97.125 69.3125 C-97.67027344 70.29089844 -98.21554687 71.26929688 -98.77734375 72.27734375 C-112.20642609 97.73451002 -114.85486022 127.84205519 -106.68359375 155.40625 C-101.80872518 170.65662429 -94.72067349 184.2532218 -84.125 196.3125 C-83.46242188 197.11816406 -82.79984375 197.92382812 -82.1171875 198.75390625 C-65.16275816 218.74261538 -39.00668772 232.70511266 -12.85498047 235.11401367 C16.71451777 237.2638976 46.23839608 231.8230044 69.8125 212.75 C71.50638087 211.27814475 73.19450262 209.79961762 74.875 208.3125 C75.55691406 207.77367187 76.23882813 207.23484375 76.94140625 206.6796875 C96.54517057 190.91746892 109.90613521 163.23374387 112.69848633 138.59814453 C115.26997473 105.30039291 108.09980771 76.07324607 86.34765625 50.3203125 C66.43702842 27.56116747 39.1282146 13.68928789 8.875 11.3125 C-24.60717985 9.09518621 -55.7045655 21.50735169 -79.125 45.3125 Z " fill="#272F44" transform="translate(697.125,121.6875)"/>
<path d="M0 0 C1.31166606 1.12288421 2.60646097 2.26611385 3.875 3.4375 C4.761875 4.241875 5.64875 5.04625 6.5625 5.875 C17.83196916 18.36279015 21.55581252 31.38401834 21.2109375 48.078125 C20.63665756 58.94672885 15.04201621 68.49567123 7.875 76.4375 C5.13394086 78.86707515 2.31529673 81.13665345 -0.57421875 83.38671875 C-6.56760705 88.20529281 -9.95770103 93.4938061 -13.125 100.4375 C-16.38606413 97.17643587 -16.32156011 94.06377283 -16.40625 89.64453125 C-16.34762031 82.10328688 -14.67002159 75.34574225 -12.625 68.125 C-12.29113281 66.89587891 -11.95726562 65.66675781 -11.61328125 64.40039062 C-10.79835155 61.40843443 -9.96884197 58.42140472 -9.125 55.4375 C-10.10597656 55.82421875 -11.08695313 56.2109375 -12.09765625 56.609375 C-32.92560346 64.69554981 -60.91087176 72.97513454 -82.6328125 63.7578125 C-83.86644531 63.10425781 -83.86644531 63.10425781 -85.125 62.4375 C-86.07117188 61.93992187 -87.01734375 61.44234375 -87.9921875 60.9296875 C-99.10884243 54.45250373 -108.13076161 43.79804852 -112.125 31.4375 C-113.08681822 22.82737724 -113.32381921 14.83679086 -108.0703125 7.54296875 C-84.19518586 -18.29778077 -27.57891514 -20.99290556 0 0 Z " fill="#242B41" transform="translate(1100.125,213.5625)"/>
<path d="M0 0 C-0.53787805 6.25669643 -1.68835304 11.7762799 -3.5625 17.75 C-5.75102263 25.14598936 -7.14889397 32.24798913 -6 40 C-5.34 40.99 -4.68 41.98 -4 43 C-3.47212891 42.03900391 -3.47212891 42.03900391 -2.93359375 41.05859375 C1.16165002 33.88389775 5.8995704 27.47064086 13 23 C13.66 23 14.32 23 15 23 C14.33614495 28.26042102 12.77180662 32.93366403 10.9375 37.875 C10.62949463 38.70563965 10.32148926 39.5362793 10.00415039 40.39208984 C6.89729029 48.57049949 3.19716043 56.32962469 -1 64 C-1.51433594 64.94101562 -2.02867188 65.88203125 -2.55859375 66.8515625 C-7.9455556 75.81523343 -15.66896109 77.38106686 -25.33984375 80.16796875 C-34.09211532 82.15754596 -42.80289942 82.18270005 -51.75 82.1875 C-52.9359375 82.19974609 -54.121875 82.21199219 -55.34375 82.22460938 C-71.47347311 82.25102268 -87.03538313 80.24045658 -100 70 C-107.22983733 62.78355126 -111.13743933 54.52267636 -111.5 44.3125 C-111.10511663 34.64349852 -107.00756063 30.90049308 -100.28979492 24.47924805 C-93.47701716 17.78481484 -89.17954152 9.5247356 -85 1 C-84.07058594 1.48210937 -83.14117188 1.96421875 -82.18359375 2.4609375 C-80.93506245 3.09928433 -79.68635505 3.73728678 -78.4375 4.375 C-77.82841797 4.69210937 -77.21933594 5.00921875 -76.59179688 5.3359375 C-59.92998935 13.79907783 -36.91396003 11.70879586 -19.37402344 6.17089844 C-14.13692334 4.42642131 -8.9510157 2.56114108 -3.79321289 0.5949707 C-2 0 -2 0 0 0 Z " fill="#FECB9D" transform="translate(1091,269)"/>
<path d="M0 0 C23.78589247 0.5753993 53.75750609 3.85054808 72 21 C75.28661652 24.73136509 76.7896684 27.85273673 77.6875 32.75 C76.77487766 44.16890877 68.19248386 52.75282356 60.55371094 60.43603516 C59.07405814 61.9254531 57.61689233 63.43368784 56.1640625 64.94921875 C50.1369977 71.14034405 43.75581851 76.62756088 37 82 C34.06874118 84.44582742 31.1390186 86.89336316 28.21484375 89.34765625 C26 91 26 91 24 91 C24.99 92.6396875 24.99 92.6396875 26 94.3125 C27.58464929 96.93707538 28 97.8256378 28 101 C27.33613281 101.25394531 26.67226562 101.50789062 25.98828125 101.76953125 C21.42732859 103.54730404 17.0946559 105.2702294 13 108 C11.07939875 98.4000485 9.86628616 88.73131391 8.65234375 79.0234375 C8.43349979 77.2862519 8.21454935 75.54907971 7.99549866 73.81192017 C7.53871931 70.18298419 7.08438642 66.55375162 6.6315918 62.92431641 C6.05701008 58.32158562 5.47457601 53.71988731 4.89002132 49.11841393 C4.43570515 45.53247961 3.98658075 41.94590817 3.53882027 38.35914993 C3.32653059 36.66482941 3.11250684 34.97072505 2.89655876 33.27686691 C1.48621397 22.19217265 0.5141647 11.16304854 0 0 Z " fill="#F9FBFD" transform="translate(1172,426)"/>
<path d="M0 0 C0 4.18211313 -2.30338048 6.07164519 -4.9375 9.0625 C-5.68640503 9.9292334 -5.68640503 9.9292334 -6.45043945 10.81347656 C-10.20922832 15.14718125 -14.01420298 19.44142765 -17.91015625 23.65234375 C-20.0248761 25.95730824 -20.0248761 25.95730824 -21.80859375 28.44140625 C-26.67592142 34.79510065 -31.84703507 36.68262527 -39.2578125 38.83984375 C-49.95252869 42.15542904 -60.4040642 49.2762133 -68.22265625 57.2734375 C-70 59 -70 59 -72 59 C-72.26683594 59.57492187 -72.53367187 60.14984375 -72.80859375 60.7421875 C-74.04064495 63.07702551 -75.44838275 65.03894184 -77.0625 67.125 C-81.00517736 72.23409291 -80.98189854 74.77489132 -80.44921875 81.17578125 C-80.63097656 82.10777344 -80.81273437 83.03976562 -81 84 C-81.98476318 84.58894043 -82.96952637 85.17788086 -83.98413086 85.78466797 C-86.41676491 87.73871705 -86.95478631 88.77262637 -87.57298279 91.88145447 C-87.79210485 95.6831763 -87.83201418 99.46378129 -87.8046875 103.26953125 C-87.81594335 104.67488376 -87.82982651 106.08021747 -87.84622192 107.48551941 C-87.88221744 111.17315425 -87.88263926 114.85995935 -87.87554932 118.54772949 C-87.87463553 122.3151732 -87.90750719 126.08230737 -87.9375 129.84960938 C-87.99132182 137.233183 -88.00754916 144.61620696 -88 152 C-88.33 152 -88.66 152 -89 152 C-89 131.87 -89 111.74 -89 91 C-95.6 95.95 -102.2 100.9 -109 106 C-119.53643828 113.54737777 -130.17483204 120.87776431 -141 128 C-148.71518785 120.36688862 -155.87711693 112.30182174 -162.68359375 103.8515625 C-164.36374716 101.78324549 -166.05902559 99.74007495 -167.78515625 97.7109375 C-168.24792969 97.16493896 -168.71070313 96.61894043 -169.1875 96.05639648 C-170.49838884 94.51298315 -171.81353995 92.97319297 -173.12890625 91.43359375 C-175 89 -175 89 -175 87 C-174.32348389 86.81002441 -173.64696777 86.62004883 -172.94995117 86.42431641 C-146.43902001 78.92101263 -121.05423799 69.48529287 -96 58 C-95.09056641 57.58782227 -94.18113281 57.17564453 -93.24414062 56.75097656 C-79.03336993 50.29106212 -65.45430416 42.90701875 -52 35 C-51.03239746 34.4323291 -50.06479492 33.8646582 -49.06787109 33.27978516 C-31.97499462 23.19718053 -15.58305395 12.29791532 0 0 Z " fill="#C4C5C9" transform="translate(993,472)"/>
<path d="M0 0 C-1.67855331 4.01096169 -4.42718738 7.07072208 -7.25 10.3125 C-8.05715454 11.24316284 -8.05715454 11.24316284 -8.88061523 12.19262695 C-23.45994877 28.89465428 -39.27704715 44.3876284 -55 60 C-58.93720527 58.17705454 -61.67425426 55.63074254 -64.6875 52.5625 C-65.21134277 52.03333984 -65.73518555 51.50417969 -66.27490234 50.95898438 C-78.79426223 38.13855008 -78.79426223 38.13855008 -82 31 C-82.66 31 -83.32 31 -84 31 C-84.26941406 31.598125 -84.53882813 32.19625 -84.81640625 32.8125 C-88.27009047 39.19554674 -94.57434701 42.1375781 -101.23046875 44.3046875 C-107.95745803 45.99355082 -113.18240935 45.63259077 -119.2734375 42.2109375 C-122.80628325 39.73314975 -124.65256149 37.04231553 -126 33 C-126.8095027 24.96724242 -124.96800765 19.19694685 -119.875 12.875 C-115.42230688 8.03634405 -110.52110664 4.73686735 -104.05078125 3.3828125 C-100.50385245 4.100373 -100.23893962 4.55484281 -98.296875 7.4296875 C-97.42568281 8.89849628 -96.57739962 10.38108403 -95.75 11.875 C-94.89250177 13.3526532 -94.0332035 14.82926369 -93.171875 16.3046875 C-92.6164502 17.2944458 -92.6164502 17.2944458 -92.04980469 18.30419922 C-90.98691825 20.16576821 -90.98691825 20.16576821 -89 22 C-84.2945951 22.31525574 -80.30136185 21.77401623 -75.7734375 20.53125 C-74.59112549 20.21140137 -73.40881348 19.89155273 -72.19067383 19.56201172 C-70.93150146 19.21154785 -69.6723291 18.86108398 -68.375 18.5 C-67.04536018 18.13617117 -65.71552245 17.77306494 -64.38549805 17.41064453 C-61.62945824 16.65799059 -58.87498203 15.89994818 -56.12158203 15.13769531 C-52.16686338 14.04373056 -48.20701766 12.96972301 -44.24609375 11.8984375 C-32.62928728 8.74319953 -21.0462339 5.55519907 -9.63012695 1.72607422 C-6.19631537 0.5914373 -3.66346143 0 0 0 Z " fill="#C5C6CA" transform="translate(1303,523)"/>
<path d="M0 0 C30.48523304 0.37464878 60.94740768 1.17649142 91.41397095 2.28225327 C93.95420628 2.37335763 96.49453167 2.46129295 99.03491211 2.54824829 C117.23950665 3.17548657 135.40160119 4.04770289 153.5625 5.4765625 C154.35644165 5.53702129 155.1503833 5.59748009 155.96838379 5.65977097 C158.21021577 5.83286716 160.45082195 6.01707442 162.69140625 6.20556641 C164.59708374 6.36286728 164.59708374 6.36286728 166.54125977 6.52334595 C169.90939215 6.9875132 172.82206074 7.81246752 176 9 C169.29363596 13.47090936 160.55490941 12.82783698 152.71484375 13.4609375 C151.89920393 13.52730785 151.08356411 13.59367821 150.24320793 13.66205978 C131.8643087 15.13985128 113.47741194 15.90765857 95.05297852 16.53839111 C91.73532265 16.65376592 88.4179682 16.77674212 85.10059547 16.89995193 C68.43254607 17.51852883 51.76233963 18.06310201 35.08903313 18.51926804 C33.50357122 18.56264734 31.91812707 18.60668245 30.33270454 18.65147781 C19.21941006 18.96248912 8.11745893 19.04879107 -3 19 C-3 18.67 -3 18.34 -3 18 C-2.01257812 17.93941406 -1.02515625 17.87882812 -0.0078125 17.81640625 C1.27351563 17.73261719 2.55484375 17.64882812 3.875 17.5625 C5.15117188 17.48128906 6.42734375 17.40007812 7.7421875 17.31640625 C10.88300152 17.20793973 10.88300152 17.20793973 13 16 C9.46331134 11.01236215 5.75615429 6.56266609 1.3203125 2.34765625 C0 1 0 1 0 0 Z " fill="#EAEBF0" transform="translate(1191,1014)"/>
<path d="M0 0 C2.4375 1.5625 2.4375 1.5625 4 4 C4.25069759 8.64939569 3.79456081 12.75427044 2.75 17.27734375 C2.47510742 18.49389648 2.20021484 19.71044922 1.91699219 20.96386719 C1.76790405 21.60948608 1.61881592 22.25510498 1.46520996 22.92028809 C0.65191923 26.44682425 -0.13557588 29.97908107 -0.921875 33.51171875 C-1.08959412 34.26413849 -1.25731323 35.01655823 -1.43011475 35.79177856 C-4.07481986 47.75132048 -6.38193593 59.78305036 -8.72593689 71.80441284 C-9.19064834 74.14040778 -9.68348872 76.46923155 -10.17797852 78.79907227 C-10.73048064 81.44717155 -11.08438401 83.91018131 -11.33569336 86.62084961 C-11.75637263 90.0011129 -12.15745278 92.12698468 -14 95 C-19.07074991 98.04338854 -24.38939083 99.51837237 -30.0625 101.0625 C-31.55542625 101.50773596 -33.04698896 101.95757116 -34.53710938 102.41210938 C-38.05916863 103.47596714 -41.5939314 104.48416137 -45.13769531 105.47293091 C-48.46871103 106.4156743 -51.77271191 107.44713137 -55.07836914 108.47460938 C-57.87852239 109.24019568 -60.13248908 109.47791849 -63 109 C-66.05623277 106.90889337 -66.86463014 105.70693151 -67.5625 102.0625 C-66.8015804 97.91971553 -65.19810804 96.69786921 -62 94 C-59.50666667 92.97651084 -57.26332336 92.19195108 -54.6875 91.5 C-53.27064884 91.09048153 -51.85398782 90.68030471 -50.4375 90.26953125 C-49.34695313 89.96136475 -49.34695313 89.96136475 -48.234375 89.64697266 C-45.97628437 88.99313304 -43.73816383 88.29314115 -41.5 87.57421875 C-40.77723877 87.3421875 -40.05447754 87.11015625 -39.30981445 86.87109375 C-37.91984124 86.42338582 -36.53033604 85.97422164 -35.14135742 85.5234375 C-32.3006262 84.62334635 -30.00155279 84 -27 84 C-26.8875293 83.3603833 -26.77505859 82.7207666 -26.65917969 82.06176758 C-25.32252521 74.57422563 -23.8101996 67.13128229 -22.25 59.6875 C-20.59090795 51.73972279 -18.94766195 43.79032704 -17.37890625 35.82421875 C-17.24686798 35.15551254 -17.11482971 34.48680634 -16.97879028 33.7978363 C-16.34518873 30.58710478 -15.71568734 27.37566604 -15.09277344 24.1628418 C-10.09038051 -1.23916954 -10.09038051 -1.23916954 0 0 Z " fill="#0A71D1" transform="translate(719,156)"/>
<path d="M0 0 C-0.53787805 6.25669643 -1.68835304 11.7762799 -3.5625 17.75 C-5.75102263 25.14598936 -7.14889397 32.24798913 -6 40 C-5.34 40.99 -4.68 41.98 -4 43 C-3.47212891 42.03900391 -3.47212891 42.03900391 -2.93359375 41.05859375 C1.16165002 33.88389775 5.8995704 27.47064086 13 23 C13.66 23 14.32 23 15 23 C14.33935537 28.29362686 12.7319614 32.97237599 10.875 37.9375 C10.56876709 38.76419189 10.26253418 39.59088379 9.94702148 40.44262695 C7.03601133 48.16010257 3.63812501 55.60211055 0 63 C-8.59872156 59.81038875 -12.59338846 54.68091213 -16.8359375 46.68359375 C-19.27427033 41.06233651 -19.1243187 35.71244565 -19.0625 29.6875 C-19.05798828 28.85154297 -19.05347656 28.01558594 -19.04882812 27.15429688 C-19.03710548 25.10283351 -19.01917203 23.05140727 -19 21 C-19.85795166 21.32379639 -20.71590332 21.64759277 -21.59985352 21.98120117 C-25.05486549 23.01643955 -27.80800885 23.27230337 -31.40234375 23.30078125 C-32.6147876 23.31044922 -33.82723145 23.32011719 -35.07641602 23.33007812 C-55.25002322 23.23823496 -70.4917351 19.95473631 -89 12 C-88.39301257 7.87248551 -86.96189209 4.6678852 -85 1 C-84.07058594 1.48210937 -83.14117188 1.96421875 -82.18359375 2.4609375 C-80.93506245 3.09928433 -79.68635505 3.73728678 -78.4375 4.375 C-77.82841797 4.69210937 -77.21933594 5.00921875 -76.59179688 5.3359375 C-59.92998935 13.79907783 -36.91396003 11.70879586 -19.37402344 6.17089844 C-14.13692334 4.42642131 -8.9510157 2.56114108 -3.79321289 0.5949707 C-2 0 -2 0 0 0 Z " fill="#E3B58D" transform="translate(1091,269)"/>
<path d="M0 0 C2.83647422 0.97171097 5.16366619 2.29003139 7.70329285 3.88153076 C8.58630066 4.42938232 9.46930847 4.97723389 10.3790741 5.54168701 C11.04294128 5.96321045 11.70680847 6.38473389 12.39079285 6.81903076 C11.73410933 11.79371816 9.64374311 15.9609414 7.53141785 20.45184326 C7.14516235 21.28432587 6.75890686 22.11680847 6.36094666 22.97451782 C5.12595905 25.63341262 3.88357709 28.28877257 2.64079285 30.94403076 C1.81997379 32.70681581 0.9996562 34.46983445 0.17985535 36.23309326 C-1.00952741 38.79075261 -2.19938536 41.34817974 -3.39155579 43.90454102 C-6.1683846 49.85930942 -8.91242038 55.82750385 -11.60920715 61.81903076 C-15.66765965 60.29669559 -19.40820167 58.39765472 -23.2224884 56.34246826 C-23.83690292 56.01235748 -24.45131744 55.6822467 -25.08435059 55.34213257 C-27.03148543 54.29524989 -28.97661507 53.2447031 -30.92170715 52.19403076 C-32.24774792 51.48024548 -33.57391849 50.76670127 -34.90022278 50.05340576 C-38.13805747 48.31140104 -41.37410518 46.56610631 -44.60920715 44.81903076 C-44.60920715 40.91605604 -43.53019428 40.34641653 -40.83308411 37.6071167 C-39.59598442 36.34130768 -39.59598442 36.34130768 -38.33389282 35.04992676 C-37.43087936 34.14357483 -36.52786591 33.2372229 -35.5974884 32.30340576 C-34.67711288 31.37304504 -33.75673737 30.44268433 -32.80847168 29.48413086 C-30.85749309 27.51517998 -28.90040135 25.55254067 -26.93952942 23.59344482 C-24.42662711 21.08084754 -21.93499699 18.54824826 -19.44822407 16.00982285 C-17.07395003 13.5941921 -14.67825098 11.20022441 -12.2849884 8.80340576 C-11.3920961 7.88895691 -10.4992038 6.97450806 -9.57925415 6.03234863 C-8.73876022 5.20108459 -7.8982663 4.36982056 -7.03230286 3.5133667 C-6.29728043 2.77406921 -5.562258 2.03477173 -4.80496216 1.27307129 C-2.60920715 -0.18096924 -2.60920715 -0.18096924 0 0 Z " fill="#0870D1" transform="translate(1108.6092071533203,349.18096923828125)"/>
<path d="M0 0 C2.359375 2.01953125 2.359375 2.01953125 4.75 4.8125 C5.17684082 5.30443848 5.60368164 5.79637695 6.04345703 6.30322266 C7.38002425 7.85474499 8.69252603 9.42391374 10 11 C10.82757812 11.99128906 11.65515625 12.98257813 12.5078125 14.00390625 C16.05004172 18.30017436 19.52351236 22.65049304 23 27 C21.24636786 31.91016999 17.29333927 33.84922044 12.8203125 36.09375 C9.1080372 37.28661408 5.54887631 37.38344293 1.6875 37.375 C0.92928955 37.37338867 0.1710791 37.37177734 -0.61010742 37.37011719 C-6.40144148 37.24276652 -10.18206696 36.40089391 -15 33 C-15.86562628 31.95610096 -15.86562628 31.95610096 -16.74873996 30.89111304 C-19.92101495 28.22632511 -22.09823384 28.49697528 -26.20766068 28.49219131 C-26.93827674 28.48588756 -27.6688928 28.47958381 -28.42164874 28.47308904 C-30.883243 28.45675531 -33.34387344 28.46901828 -35.80548096 28.48101807 C-37.58260379 28.47514581 -39.35972155 28.46752034 -41.13683009 28.458287 C-46.03055799 28.43795917 -50.92399712 28.44259823 -55.81774807 28.45119452 C-61.09110757 28.45612531 -66.36439323 28.438072 -71.63772583 28.42277527 C-80.77755655 28.39942483 -89.91730786 28.39071642 -99.05716705 28.39188385 C-112.27193649 28.39355071 -125.48659982 28.37324258 -138.701341 28.34752855 C-160.14008154 28.30641045 -181.57880304 28.28312522 -203.01757812 28.27099609 C-223.84637279 28.25917401 -244.6751316 28.23898964 -265.50390625 28.20751953 C-267.42894206 28.20461538 -267.42894206 28.20461538 -269.39286748 28.20165256 C-275.83093579 28.19188822 -282.26900384 28.18195907 -288.70707178 28.17194796 C-342.13803025 28.08907684 -395.56899028 28.03512203 -449 28 C-449 27.67 -449 27.34 -449 27 C-307.43 27 -165.86 27 -20 27 C-20.66 25.35 -21.32 23.7 -22 22 C-22.30813807 16.09402029 -20.96229881 11.45758616 -17 7 C-6.70192889 -0.93305297 -6.70192889 -0.93305297 0 0 Z " fill="#CEAF97" transform="translate(784,520)"/>
<path d="M0 0 C3.47646495 4.00650894 5.80398764 8.153549 8.125 12.875 C8.47175781 13.55691406 8.81851562 14.23882812 9.17578125 14.94140625 C15.51473029 27.69216581 15.47390028 40.2434258 11.34375 53.62646484 C9.60753681 58.78410908 7.4351883 63.66802357 4.9375 68.5 C4.60943359 69.14130859 4.28136719 69.78261719 3.94335938 70.44335938 C1.55546808 74.7758807 1.55546808 74.7758807 -1.24609375 75.90625 C-1.82488281 75.9371875 -2.40367188 75.968125 -3 76 C-10.81183648 65.44346421 -11.25545533 54.01475726 -11.3125 41.3125 C-11.31805908 40.26779541 -11.32361816 39.22309082 -11.3293457 38.14672852 C-11.2426707 28.75249204 -10.06690466 19.9161068 -6.625 11.125 C-6.22539063 10.07570313 -5.82578125 9.02640625 -5.4140625 7.9453125 C-3.94688338 4.88936482 -2.21459328 2.55385013 0 0 Z " fill="#262E44" transform="translate(1317,429)"/>
<path d="M0 0 C2.08880441 2.18672331 3.43214582 4.73300508 4.875 7.375 C5.72927156 8.84412528 6.58867761 10.31027664 7.453125 11.7734375 C7.87658203 12.49370117 8.30003906 13.21396484 8.73632812 13.95605469 C11.41380363 18.2867782 14.68307858 22.14570025 18 26 C13.59397694 33.74987985 8.23688123 37.54787588 -0.23046875 40.3046875 C-6.95745803 41.99355082 -12.18240935 41.63259077 -18.2734375 38.2109375 C-21.80628325 35.73314975 -23.65256149 33.04231553 -25 29 C-25.8095027 20.96724242 -23.96800765 15.19694685 -18.875 8.875 C-13.98221786 3.55810778 -7.55601082 -1.46245371 0 0 Z " fill="#FECB9D" transform="translate(1202,527)"/>
<path d="M0 0 C1.08474609 1.08861328 1.08474609 1.08861328 2.19140625 2.19921875 C22.1753866 22.12761084 43.06499163 30.35631726 71.32910156 30.37744141 C84.02357209 30.17073431 96.17079609 27.9474663 108.0546875 23.48168945 C110 23 110 23 113 24 C94.56334601 40.61065951 65.32989673 43.08572536 41.76416016 42.19091797 C36.31838747 41.81478352 31.80335302 40.54472308 27 38 C26.05382812 37.50242187 25.10765625 37.00484375 24.1328125 36.4921875 C12.84987504 29.91811825 4.28231037 19.39094435 0 7 C-0.07646165 4.6679198 -0.09143299 2.33154122 0 0 Z " fill="#141823" transform="translate(988,238)"/>
<path d="M0 0 C4.30375948 2.48661659 6.33281294 5.34942557 8 10 C8.22733451 13.01959538 8.18125374 15.97910428 8 19 C-1.51070111 21.70823985 -11.09818496 23.97780892 -20.75 26.125 C-21.88542236 26.37846191 -23.02084473 26.63192383 -24.19067383 26.89306641 C-31.10270237 28.41655855 -38.02606805 29.79088095 -45 31 C-42.72210571 26.27690844 -39.52805327 22.8474655 -36 19 C-35.49726562 18.41992188 -34.99453125 17.83984375 -34.4765625 17.2421875 C-30.76823758 13.19503086 -26.58178107 10.21680711 -22 7.25 C-21.12782837 6.68454468 -21.12782837 6.68454468 -20.23803711 6.10766602 C-13.66690711 1.97890292 -7.90709068 -0.89273604 0 0 Z " fill="#272F45" transform="translate(1107,1000)"/>
<path d="M0 0 C2.68234791 1.06164507 4.91033544 2.08123713 7.375 3.5 C8.34880615 4.0424939 8.34880615 4.0424939 9.34228516 4.59594727 C19.20299742 10.23500391 32.25189355 18.85328758 36 30 C28.45181153 29.34293901 21.25139701 27.8263727 13.875 26.125 C11.47815692 25.58074223 9.08102275 25.03776475 6.68359375 24.49609375 C5.53616699 24.23683105 4.38874023 23.97756836 3.20654297 23.71044922 C-2.00172571 22.55649293 -7.2312728 21.53360823 -12.47265625 20.54296875 C-15 20 -15 20 -17 19 C-16.55419467 12.08233112 -15.67811955 6.90767265 -10.8125 1.625 C-7.17551064 -0.47637163 -4.07122144 -0.51684794 0 0 Z " fill="#272F44" transform="translate(1168,1000)"/>
<path d="M0 0 C4.50833357 0.67910686 8.48088915 2.32991801 12.63671875 4.125 C13.35737015 4.43195801 14.07802155 4.73891602 14.82051086 5.05517578 C17.11143861 6.0323336 19.39944443 7.01613851 21.6875 8 C23.23744949 8.6618817 24.7875779 9.32334456 26.33789062 9.984375 C37.52451565 14.76225783 37.52451565 14.76225783 40 16 C38.49222254 21.68595597 35.60096115 26.04424599 32.375 30.875 C31.859375 31.65875 31.34375 32.4425 30.8125 33.25 C29.54763162 35.17072607 28.27672497 37.08714347 27 39 C23.78369859 37.47396585 21.71230701 35.90199229 19.25 33.3125 C16.62996663 30.61995648 13.98425817 28.06173621 11.125 25.625 C6.88385373 21.98973177 3.00098258 18.03506264 -0.8984375 14.0390625 C-2.83096046 11.95873909 -2.83096046 11.95873909 -5 11 C-4.32902328 6.80639551 -2.1441606 3.59665648 0 0 Z " fill="#0865BD" transform="translate(1020,377)"/>
<path d="M0 0 C2.6953125 -0.4609375 2.6953125 -0.4609375 6 0 C8.10783909 2.1646797 9.43383525 4.73609858 10.875 7.375 C11.72927156 8.84412528 12.58867761 10.31027664 13.453125 11.7734375 C13.87658203 12.49370117 14.30003906 13.21396484 14.73632812 13.95605469 C17.41380363 18.2867782 20.68307858 22.14570025 24 26 C22.16791754 29.27436014 20.42962449 31.82348039 17.5625 34.25 C16.98628906 34.75015625 16.41007812 35.2503125 15.81640625 35.765625 C13.86290009 37.09316897 12.28343154 37.4881709 10 38 C9.7733667 37.28457031 9.5467334 36.56914063 9.31323242 35.83203125 C8.27347524 32.55399994 7.23051291 29.27699677 6.1875 26 C5.83107422 24.87464844 5.47464844 23.74929688 5.10742188 22.58984375 C3.58221359 17.80432786 2.0580658 13.05008374 0.21875 8.375 C-1.02278201 4.93691136 -1.17177326 3.40879493 0 0 Z " fill="#E6B88F" transform="translate(1196,527)"/>
<path d="M0 0 C-5.55035203 6.78376359 -11.76442027 12.85522968 -18 19 C-17.67 19.99 -17.34 20.98 -17 22 C-18.98 22.66 -20.96 23.32 -23 24 C-22.67 22.68 -22.34 21.36 -22 20 C-23.2375 19.608125 -24.475 19.21625 -25.75 18.8125 C-31.63207922 16.86118823 -37.30598782 14.43753821 -43 12 C-43 11.67 -43 11.34 -43 11 C-41.84886719 10.71898437 -40.69773437 10.43796875 -39.51171875 10.1484375 C-35.24474254 9.08098995 -31.02815903 7.87802569 -26.8125 6.625 C-25.71373535 6.30172729 -25.71373535 6.30172729 -24.59277344 5.97192383 C-21.11168791 4.94342128 -17.63976981 3.8946699 -14.18359375 2.78515625 C-13.05050781 2.42292969 -11.91742187 2.06070312 -10.75 1.6875 C-9.75484375 1.36136719 -8.7596875 1.03523438 -7.734375 0.69921875 C-5.03244838 0.00829751 -2.77457561 -0.13670354 0 0 Z " fill="#F8C9A0" transform="translate(1082,373)"/>
<path d="M0 0 C4.01671494 0.52352689 5.59104839 2.37654769 8.1875 5.375 C8.96867188 6.27347656 9.74984375 7.17195312 10.5546875 8.09765625 C15.79929574 14.3224868 20.91958859 20.64092325 26 27 C24.48805186 31.23345479 21.84325085 32.85664857 18 35 C16.00858486 35.38128314 14.00847927 35.72229127 12 36 C11.66790527 34.98015015 11.66790527 34.98015015 11.32910156 33.93969727 C10.30764104 30.81233802 9.27887299 27.68742807 8.25 24.5625 C7.90195312 23.49322266 7.55390625 22.42394531 7.1953125 21.32226562 C5.32394894 15.65619262 3.32883432 10.1935208 0.72558594 4.82006836 C0 3 0 3 0 0 Z " fill="#E6B78F" transform="translate(781,520)"/>
<path d="M0 0 C-1 2 -1 2 -4.3125 3.1875 C-7.57562063 3.90649268 -8.99282882 4.20286847 -12 3 C-8.62446616 -0.37553384 -4.59080647 -0.1311659 0 0 Z " fill="#D3D6DD" transform="translate(1077,636)"/>
</svg>
